<svg viewBox="0 0 100 53" fill="none" xmlns="http://www.w3.org/2000/svg">
<g clip-path="url(#clip0_140_14540)">
<mask id="mask0_140_14540" style="mask-type:alpha" maskUnits="userSpaceOnUse" x="0" y="8" width="17" height="44">
<path d="M0 8.74023H16.6124V51.503H0V8.74023Z" fill="white"/>
</mask>
<g mask="url(#mask0_140_14540)">
<path fill-rule="evenodd" clip-rule="evenodd" d="M16.6119 30.1218V50.2666C16.6119 51.5642 16.6739 51.5025 15.3139 51.5025H13.3359C12.7796 51.4408 12.7179 51.3789 12.7179 50.8845C12.6557 50.6377 12.7179 50.3903 12.7179 50.1432C12.7179 44.7667 12.7179 39.3908 12.6557 34.0762V32.9023C12.6557 32.8403 12.6557 32.7169 12.5322 32.7169C12.4705 32.7169 12.4088 32.8403 12.4088 32.9023C12.2234 33.7674 12.0377 34.5706 11.9142 35.436C11.4196 38.2785 10.9251 41.121 10.4305 44.0253L10.3068 44.5197C10.1834 45.076 10.1217 45.1377 9.56509 45.1377H7.03054C6.2891 45.1377 6.22711 45.1377 6.10367 44.3346C5.67082 41.7389 5.23797 39.1434 4.74341 36.5482L4.18712 33.4584C4.18712 33.3967 4.1254 33.273 4.00197 33.273C3.93998 33.273 3.93998 33.4584 3.93998 33.5204C3.93998 33.9528 3.87826 34.3235 3.87826 34.7563C3.87826 39.8235 3.87826 44.829 3.87826 49.8959V50.514C3.87826 51.3789 3.87826 51.3789 2.95084 51.4408C2.20913 51.4408 1.4057 51.4408 0.663711 51.3789C0.0457092 51.3789 0.0457092 51.3172 -0.0160084 50.6994C-0.0160084 50.514 -0.0160084 50.3283 -0.0160084 50.1432V9.97631C-0.0160084 8.67873 -0.0780015 8.74071 1.22027 8.74071H3.13655C3.81654 8.74071 3.87826 8.8024 4.00197 9.48218L4.74341 13.6223C5.79426 19.74 6.84539 25.9194 7.95795 32.0371V32.1608C8.08167 32.3459 7.95795 32.7786 8.26709 32.7786C8.51424 32.7786 8.45252 32.4082 8.51424 32.1608C8.82365 30.4305 9.13252 28.7619 9.37994 27.0319C10.4305 21.2232 11.4196 15.4143 12.4705 9.60558C12.5939 8.74071 12.5939 8.74071 13.4596 8.74071H15.8702C16.5502 8.74071 16.5502 8.8024 16.6119 9.54388C16.6119 9.79122 16.6119 10.0383 16.6119 10.2854V30.1218Z" fill="#643C28"/>
</g>
<path fill-rule="evenodd" clip-rule="evenodd" d="M41.214 19.7477C41.214 21.7207 41.214 23.6941 41.214 25.729V26.2836C41.2753 26.7769 41.3977 26.9006 41.9498 26.8385C42.1338 26.8385 42.3177 26.7769 42.5017 26.7154C43.5441 26.222 44.096 25.4206 44.1572 24.1874V19.8711C44.1572 18.3295 44.1572 16.8498 44.096 15.3082C44.096 14.075 43.3602 13.1499 42.2565 12.7803C41.4592 12.5335 41.214 12.7184 41.214 13.5201V19.7477ZM37.3506 30.2918V10.0671C37.3506 8.95728 37.3506 8.95728 38.4545 8.95728H41.8883C45.016 8.95728 47.7755 11.6084 47.8367 14.8149C47.8979 18.083 47.8979 21.4126 47.8367 24.7423C47.8367 26.0986 47.2848 27.2703 46.4261 28.3801C46.0584 28.8734 46.0584 28.8734 46.4261 29.3667C47.2848 30.5384 47.714 31.8331 47.714 33.3131C47.6525 38.9858 47.714 44.7202 47.714 50.3929C47.714 51.503 47.6525 51.503 46.6103 51.503H44.5866C44.1572 51.503 43.9735 51.318 43.9735 50.9478C43.9735 50.7015 43.9735 50.4547 43.9735 50.2082V33.6215C43.9735 32.6967 43.7281 31.8947 42.9923 31.2167C42.6859 30.9701 42.3177 30.7849 41.8883 30.7233C41.3977 30.6615 41.2753 30.7849 41.214 31.2782C41.214 31.525 41.214 31.7715 41.214 32.0799V50.3313C41.214 51.503 41.214 51.503 40.0488 51.503H37.9639C37.5345 51.503 37.3506 51.318 37.3506 50.9478C37.3506 50.7015 37.3506 50.4547 37.3506 50.2082V30.2918Z" fill="#643C28"/>
<path fill-rule="evenodd" clip-rule="evenodd" d="M56.8718 51.503H53.2924C52.6135 51.503 52.5519 51.4414 52.5519 50.7016C52.5519 50.5166 52.5519 50.3314 52.5519 50.1467V10.2546C52.5519 8.83685 52.4903 8.95997 53.9094 8.95997H59.9573C60.9448 8.95997 60.9448 8.95997 61.0067 9.94658V12.1042C60.9448 12.8443 60.9448 12.9061 60.2043 12.9061H57.2421C56.5016 12.9061 56.44 12.9677 56.44 13.6457V25.3607C56.44 26.0387 56.5016 26.1005 57.3037 26.1005C57.9828 26.1621 58.7233 26.1005 59.4019 26.1621C59.9573 26.1621 60.0192 26.2236 60.0808 26.7785V29.5531C60.0192 30.1079 59.9573 30.17 59.3403 30.17H57.3037C56.5016 30.2316 56.44 30.2316 56.44 31.033V39.2336C56.44 41.4531 56.44 43.611 56.44 45.8307V46.3855C56.44 47.4337 56.44 47.4337 57.4272 47.4337H60.0192C61.1915 47.4337 61.1915 47.4337 61.1915 48.6668C61.2531 49.3451 61.2531 50.0233 61.1915 50.7016C61.1915 51.4414 61.1299 51.503 60.3894 51.503H56.8718Z" fill="#643C28"/>
<mask id="mask1_140_14540" style="mask-type:alpha" maskUnits="userSpaceOnUse" x="65" y="8" width="20" height="45">
<path d="M65.4724 8.63159H84.6907V52.1541H65.4724V8.63159Z" fill="white"/>
</mask>
<g mask="url(#mask1_140_14540)">
<path fill-rule="evenodd" clip-rule="evenodd" d="M65.4724 30.3162V10.1761C65.4724 9.06761 65.4724 9.06761 66.577 9.06761C67.3134 9.06761 67.9885 9.00612 68.7248 9.06761C69.2771 9.06761 69.3387 9.12911 69.3387 9.68364C69.3387 9.86812 69.3387 10.1146 69.3387 10.3609V50.2713C69.3387 51.6261 69.4615 51.5646 68.0497 51.5646H66.0247C65.6562 51.5646 65.4724 51.3798 65.4724 51.0103C65.4724 50.7641 65.4724 50.5176 65.4724 50.2713V30.3162Z" fill="#643C28"/>
<path fill-rule="evenodd" clip-rule="evenodd" d="M73.291 42.696C73.291 41.2792 73.291 39.9244 73.3526 38.5076C73.3526 37.7071 73.3526 37.7071 74.1505 37.7071C75.0094 37.7071 75.8689 37.6456 76.7278 37.7071C77.4029 37.7071 77.4642 37.7686 77.4642 38.4461C77.4642 40.8482 77.4642 43.2502 77.4642 45.6523V46.5143C77.587 47.3151 78.2621 47.9311 78.9985 47.9311C79.7964 47.9311 80.4103 47.2536 80.4103 46.3911C80.4715 45.1595 80.4103 43.8663 80.4715 42.6342C80.5328 39.9859 80.0418 37.4605 79.0598 34.997L74.4572 22.4329C73.7208 20.3388 73.2298 18.1215 73.291 15.8427C73.3526 15.2267 73.291 14.6724 73.291 14.0566C73.4139 11.0385 75.8689 8.75972 78.8144 8.63646C81.6377 8.51347 84.5832 10.7308 84.6444 14.3029C84.706 15.5347 84.6444 16.7665 84.6444 18.06C84.6444 18.7373 84.5832 18.799 83.9083 18.799H81.1467C80.5328 18.799 80.4715 18.7373 80.4715 18.1215V14.6109C80.4715 14.1181 80.3487 13.6869 79.9805 13.3173C79.1829 12.5168 78.0165 12.7631 77.587 13.8101C77.5258 14.0566 77.4642 14.2414 77.4642 14.4879C77.3414 16.6432 77.587 18.799 78.385 20.8316L83.5399 34.9355C84.2765 36.9063 84.5832 39.0003 84.6444 41.0947C84.706 42.8807 84.706 44.6668 84.6444 46.4528C84.5832 49.4709 82.4966 51.8112 79.4895 52.119C76.2981 52.4888 73.3526 49.9017 73.3526 46.6379C73.291 45.344 73.291 44.0507 73.291 42.696Z" fill="#643C28"/>
</g>
<path fill-rule="evenodd" clip-rule="evenodd" d="M99.9999 30.2314V50.2694C99.9999 51.5641 99.9999 51.5025 98.7023 51.5025H97.0345C96.4162 51.4409 96.3545 51.4409 96.2929 50.7627C96.2929 50.5162 96.2929 50.2694 96.2929 50.0229V31.4029C96.2929 30.1698 96.2929 30.1698 95.1189 30.1698H93.3272C92.8945 30.1698 92.7095 30.3545 92.7095 30.7862C92.7095 31.0327 92.7095 31.2793 92.7095 31.526V50.2694C92.7095 51.5025 92.7095 51.5025 91.4738 51.5025H89.4965C88.9405 51.4409 88.8785 51.3791 88.8168 50.8243C88.8168 50.5777 88.8168 50.3928 88.8168 50.1463V10.2546C88.8168 8.83685 88.7551 8.95997 90.1761 8.95997H92.1532C92.5241 8.95997 92.7095 9.08336 92.7095 9.51483V10.2546C92.7095 15.0639 92.7095 19.873 92.7095 24.6823V25.1756C92.7095 26.1003 92.7712 26.1003 93.6362 26.1003H95.7366C96.1075 26.1003 96.2929 25.9154 96.2929 25.5452C96.2929 25.299 96.2929 25.0519 96.2929 24.8057V10.2546C96.2929 10.0081 96.3545 9.76134 96.2929 9.51483C96.2929 9.08336 96.5402 8.95997 96.9106 8.95997H99.3822C99.7526 8.95997 99.9999 9.08336 99.9382 9.51483C99.9382 9.8229 99.9999 10.0697 99.9999 10.3162V30.2314Z" fill="#643C28"/>
<path fill-rule="evenodd" clip-rule="evenodd" d="M32.2392 51.2858H21.7239C21.4795 51.2858 21.2812 51.0938 21.2812 50.8569V47.9157C21.2812 47.679 21.4795 47.4871 21.7239 47.4871H32.2392C32.4836 47.4871 32.6819 47.679 32.6819 47.9157V50.8569C32.6819 51.0938 32.4836 51.2858 32.2392 51.2858Z" fill="#26B1AD"/>
<path fill-rule="evenodd" clip-rule="evenodd" d="M25.4101 23.5557C25.4383 23.5684 25.467 23.5841 25.4952 23.5974V6.40746C25.4952 6.16004 25.433 5.91206 25.4952 5.66409C25.6189 4.98258 26.2386 4.48719 26.9201 4.48719C27.6016 4.48719 28.2832 4.98258 28.4071 5.72622V6.59357C28.4071 11.7356 28.4071 17.8286 28.4071 22.9087V25.4989C28.4342 25.5146 28.4615 25.5317 28.4886 25.5469C30.0414 26.4214 31.511 26.7592 32.6819 26.8655V6.84127C32.6819 6.40746 32.6198 5.97392 32.5579 5.54038C32.4961 2.69035 29.8318 0.274414 26.9201 0.274414C23.9463 0.274414 21.2204 2.93832 21.2823 5.91206C21.3441 11.2399 21.2823 17.5806 21.2823 22.9087V23.2679C22.4236 22.9473 23.8673 22.8595 25.4101 23.5557Z" fill="#643C28"/>
<path fill-rule="evenodd" clip-rule="evenodd" d="M21.3431 39.9205C21.8388 42.3868 23.9455 44.1746 26.5478 44.4214C28.9022 44.668 31.3187 43.1883 32.1862 40.9069C32.5579 39.9205 32.6819 38.9954 32.6819 38.0088V26.7788C31.5109 26.673 30.0411 26.3369 28.4882 25.4665C28.4612 25.4514 28.4338 25.4343 28.4068 25.4187V38.0706C28.4068 38.3787 28.4068 38.6873 28.4068 38.9954C28.2828 39.7355 27.663 40.2286 26.9814 40.2286C26.238 40.2286 25.6183 39.7355 25.4945 38.9336C25.4324 38.7486 25.4945 38.5018 25.4945 38.3171V23.5262C25.4664 23.513 25.4376 23.4973 25.4095 23.4847C23.8665 22.7918 22.4227 22.8792 21.2812 23.1983V38.8104C21.2812 39.1804 21.2812 39.5503 21.3431 39.9205Z" fill="#26B1AD"/>
</g>
<defs>
<clipPath id="clip0_140_14540">
<rect width="100" height="51.8797" fill="white" transform="translate(0 0.274414)"/>
</clipPath>
</defs>
</svg>
