<svg viewBox="0 0 78 78" fill="none" xmlns="http://www.w3.org/2000/svg">
<path fill-rule="evenodd" clip-rule="evenodd" d="M38.5421 0.614746C59.7402 0.614746 77.0841 18.0027 77.0841 39.2547C77.0841 60.5066 59.7402 77.8946 38.5421 77.8946C17.3439 77.8946 0 60.5066 0 39.2547C0 18.0027 17.3439 0.614746 38.5421 0.614746Z" fill="#789589"/>
<path fill-rule="evenodd" clip-rule="evenodd" d="M13.3519 38.9913H63.6893V23.0408H13.3519V38.9913ZM12.8164 39.2661V39.2599V39.2532V22.7733C12.8164 22.6249 12.9363 22.5046 13.0838 22.5046H63.9573C64.057 22.5046 64.1446 22.5598 64.1904 22.642L76.9538 42.2903C75.3988 62.1434 58.7074 77.9062 38.5206 77.9062C37.8542 77.9062 37.1914 77.8884 36.533 77.8547L12.9223 55.9594L12.9162 55.9545L12.9143 55.9533L12.9076 55.9478L12.9045 55.9447L12.8862 55.9263L12.8837 55.9232L12.8819 55.922L12.8782 55.9177L12.8776 55.9165L12.8696 55.9061L12.869 55.9054C12.8452 55.8735 12.828 55.8349 12.8213 55.7938H12.8207C12.8176 55.7778 12.8164 55.7619 12.8164 55.7459V55.7318V39.2661ZM13.3519 55.4773H63.6893V39.5274H13.3519V55.4773Z" fill="#00432F"/>
<path fill-rule="evenodd" clip-rule="evenodd" d="M13.3818 39.0085H63.7043V23.0715H13.3818V39.0085Z" fill="#E8AF56"/>
<path fill-rule="evenodd" clip-rule="evenodd" d="M56.8559 30.4546H55.3431V28.1762H56.8559C57.4565 28.3108 57.8569 28.7349 57.8569 29.3151C57.8569 29.8965 57.4565 30.3206 56.8559 30.4546ZM59.3587 29.3151C59.3587 28.0539 58.269 27.0373 57.1118 26.8363H53.897V35.2117H55.3431V31.795H56.4335L57.9684 35.2117H59.5706L57.8349 31.5603C58.6804 31.1472 59.3587 30.3095 59.3587 29.3151ZM47.0559 35.2117H51.906V33.8718H48.502V31.5603H51.4058V30.2647H48.502V28.1762H51.7946V26.8363H47.0559V35.2117ZM42.818 30.6777H41.2715V28.1762H42.818C43.4853 28.3212 43.8747 28.7908 43.8747 29.4276C43.8747 30.0637 43.4853 30.5326 42.818 30.6777ZM45.3765 29.4276C45.3765 28.1098 44.2861 27.049 43.0739 26.8363H39.826V35.2117H41.2715V32.0181H43.0739C44.2861 31.8055 45.3765 30.7453 45.3765 29.4276ZM33.051 31.0243C33.051 29.1928 33.9406 28.0871 34.753 28.0871C35.5655 28.0871 36.455 29.1928 36.455 31.0243C36.455 32.8552 35.5655 33.9609 34.753 33.9609C33.9406 33.9609 33.051 32.8552 33.051 31.0243ZM37.9562 31.0243C37.9562 28.4442 36.3436 26.7251 34.753 26.7251C33.1624 26.7251 31.5492 28.4442 31.5492 31.0243C31.5492 33.6038 33.1624 35.3235 34.753 35.3235C36.3436 35.3235 37.9562 33.6038 37.9562 31.0243ZM27.8115 30.4546H26.2987V28.1762H27.8115C28.4121 28.3108 28.8125 28.7349 28.8125 29.3151C28.8125 29.8965 28.4121 30.3206 27.8115 30.4546ZM30.3143 29.3151C30.3143 28.0539 29.2245 27.0373 28.0674 26.8363H24.8526V35.2117H26.2987V31.795H27.3891L28.9239 35.2117H30.5262L28.7905 31.5603C29.636 31.1472 30.3143 30.3095 30.3143 29.3151ZM20.6147 30.6777H19.0682V28.1762H20.6147C21.282 28.3212 21.6714 28.7908 21.6714 29.4276C21.6714 30.0637 21.282 30.5326 20.6147 30.6777ZM23.1726 29.4276C23.1726 28.1098 22.0828 27.049 20.87 26.8363H17.6221V35.2117H19.0682V32.0181H20.87C22.0828 31.8055 23.1726 30.7453 23.1726 29.4276Z" fill="#903F2D"/>
<path fill-rule="evenodd" clip-rule="evenodd" d="M13.3818 55.481H63.7043V39.5439H13.3818V55.481Z" fill="#E8AF56"/>
<path fill-rule="evenodd" clip-rule="evenodd" d="M55.8136 48.9305L52.6437 43.355H51.2096V51.7014H52.566V46.1149L55.7358 51.7014H57.1705V43.355H55.8136V48.9305ZM45.4489 48.4185L46.3609 45.2023L47.2839 48.4185H45.4489ZM45.5934 43.355L43.0245 51.7014H44.5149L45.0817 49.6986H47.6511L48.2289 51.7014H49.7419L47.1725 43.355H45.5934ZM40.1111 51.7014H41.5568V43.355H40.1111V51.7014ZM34.9061 50.3662H33.75V44.6902H34.9061C36.0409 45.013 36.7411 46.0922 36.7411 47.5169C36.7411 48.9422 36.0409 50.0324 34.9061 50.3662ZM35.2734 51.7014C36.8299 51.2788 38.2425 49.6202 38.2425 47.5169C38.2425 45.4142 36.8299 43.7666 35.2734 43.355H32.3043V51.7014H35.2734ZM28.4562 48.9305L25.287 43.355H23.8523V51.7014H25.2093V46.1149L28.3785 51.7014H29.8132V43.355H28.4562V48.9305ZM19.9155 51.7014H21.3612V43.355H19.9155V51.7014Z" fill="#903F2D"/>
</svg>
