<svg viewBox="0 0 235 35" fill="none" xmlns="http://www.w3.org/2000/svg">
<path d="M10.38 34.0217C4.01954 34.0217 0 29.7288 0 22.881V0.98584H3.88405V23.3266C3.88405 27.8498 6.40567 30.6647 10.38 30.6647C14.3544 30.6647 16.876 27.8498 16.876 23.3266V0.98584H20.7751V22.8587C20.7751 29.7288 16.7405 34.0217 10.38 34.0217Z" fill="black"/>
<path d="M28.7088 18.7961V33.279H24.8247V0.98584H31.4637C35.6263 0.98584 37.636 2.96888 37.636 7.07609V12.8915C37.636 15.0603 36.8382 16.6051 35.4381 17.4592C36.9435 18.2465 37.636 19.6279 37.636 21.611V29.6843C37.636 30.5161 37.8694 30.7464 38.5694 30.7464V33.279H35.2951C34.8228 32.8536 34.4487 32.333 34.1981 31.7526C33.9474 31.1721 33.8261 30.5453 33.8423 29.9145L33.752 21.054C33.7771 20.7551 33.7359 20.4544 33.6313 20.1728C33.5267 19.8913 33.3612 19.6356 33.1462 19.4235C32.9313 19.2115 32.6722 19.0481 32.3868 18.9449C32.1015 18.8417 31.7967 18.8011 31.4938 18.8258H28.7088V18.7961ZM28.7088 4.35776V15.6099H31.5164C31.8193 15.6346 32.124 15.594 32.4094 15.4908C32.6948 15.3875 32.9539 15.2242 33.1688 15.0122C33.3837 14.8001 33.5493 14.5444 33.6539 14.2628C33.7585 13.9813 33.7997 13.6806 33.7746 13.3817V6.61561C33.7997 6.31674 33.7585 6.01606 33.6539 5.7345C33.5493 5.45293 33.3837 5.19723 33.1688 4.98517C32.9539 4.77311 32.6948 4.6098 32.4094 4.50658C32.124 4.40336 31.8193 4.36271 31.5164 4.38747H28.7088V4.35776Z" fill="black"/>
<path d="M42.1299 33.279V0.98584H49.0022C52.8336 0.98584 54.9412 3.21398 54.9412 7.07609V12.8915C54.9412 14.9216 54.1458 16.3055 52.5551 17.0433C54.4745 17.786 55.4079 19.2714 55.4079 21.4996V27.1739C55.4079 31.2811 53.3981 33.2641 49.2356 33.2641H42.1299V33.279ZM46.0064 15.5653H48.7162C50.169 15.5653 51.0572 14.6889 51.0572 13.1218V6.61561C51.0935 6.31437 51.0601 6.00894 50.9594 5.7223C50.8588 5.43566 50.6935 5.17528 50.4761 4.96078C50.2587 4.74627 49.9949 4.58323 49.7043 4.48392C49.4138 4.38462 49.1043 4.35164 48.799 4.38747H46.0139V15.5653H46.0064ZM46.0064 29.9145H49.2356C49.5385 29.9393 49.8432 29.8986 50.1286 29.7954C50.4139 29.6922 50.6731 29.5289 50.888 29.3168C51.1029 29.1048 51.2684 28.8491 51.373 28.5675C51.4776 28.2859 51.5188 27.9852 51.4937 27.6864V21.002C51.5188 20.7031 51.4776 20.4024 51.373 20.1209C51.2684 19.8393 51.1029 19.5836 50.888 19.3715C50.6731 19.1595 50.4139 18.9962 50.1286 18.8929C49.8432 18.7897 49.5385 18.7491 49.2356 18.7738H46.0139V29.9145H46.0064Z" fill="black"/>
<path d="M75.912 25.6736H63.3792L61.2791 33.279H57.2144L66.5632 0.98584H72.7129L82.0843 33.279H77.982L75.912 25.6736ZM64.2674 22.4428H74.9711L69.8752 4.08295H69.3106L64.2674 22.4428Z" fill="black"/>
<path d="M84.8695 33.279V0.98584H89.7321L94.5043 21.3288L95.385 25.5548H95.4302V1.04526H98.84V33.279H94.2559L89.5363 13.5823L88.6481 8.73977H88.603V33.2493H84.8394L84.8695 33.279Z" fill="black"/>
<path d="M118.953 18.7961V33.279H115.076V0.98584H121.715C125.878 0.98584 127.888 2.96888 127.888 7.07609V12.8841C127.888 15.0528 127.09 16.5977 125.69 17.4518C127.195 18.2391 127.888 19.6205 127.888 21.6036V29.6843C127.888 30.5161 128.121 30.7464 128.821 30.7464V33.279H125.554C125.081 32.8542 124.706 32.3338 124.456 31.7532C124.205 31.1725 124.084 30.5454 124.101 29.9145L124.003 21.054C124.029 20.7551 123.987 20.4544 123.883 20.1728C123.778 19.8913 123.613 19.6356 123.398 19.4235C123.183 19.2115 122.924 19.0481 122.638 18.9449C122.353 18.8417 122.048 18.8011 121.745 18.8258H118.983L118.953 18.7961ZM118.953 4.35776V15.6173H121.76C122.063 15.642 122.368 15.6014 122.653 15.4982C122.939 15.395 123.198 15.2316 123.413 15.0196C123.628 14.8075 123.793 14.5518 123.898 14.2703C124.002 13.9887 124.044 13.688 124.019 13.3891V6.61561C124.044 6.31674 124.002 6.01606 123.898 5.7345C123.793 5.45293 123.628 5.19723 123.413 4.98517C123.198 4.77311 122.939 4.6098 122.653 4.50658C122.368 4.40336 122.063 4.36271 121.76 4.38747H118.953V4.35776Z" fill="black"/>
<path d="M132.412 0.98584H142.716V4.35033H136.311V15.0603H141.316V18.3802H136.311V29.8254H142.716V33.279H132.412V0.98584Z" fill="black"/>
<path d="M145.133 33.279L151.629 0.98584H157.771L161.369 18.3356L162.49 24.6561H162.588L163.71 18.3356L167.308 0.98584H173.48L179.976 33.279H175.761L170.492 5.64265H170.402L164.35 33.279H160.782L154.715 5.65008H154.624L149.355 33.2864H145.103L145.133 33.279Z" fill="black"/>
<path d="M182.979 0.98584H193.269V4.35033H186.864V15.0603H191.869V18.3802H186.864V29.8254H193.269V33.279H182.979V0.98584Z" fill="black"/>
<path d="M197.447 33.279V0.98584H202.633C213.924 0.98584 221.142 7.81137 221.142 17.1324C221.142 26.4535 213.901 33.279 202.633 33.279H197.447ZM201.323 29.9145H202.633C211.794 29.9145 217.499 24.515 217.499 17.1324C217.499 9.74986 211.794 4.35033 202.633 4.35033H201.323V29.9145Z" fill="black"/>
<path d="M226.163 33.2789V18.9371L221.157 0.993164H225.034L227.292 10.9084L227.992 14.4586H228.09L228.79 10.9084L231.048 0.993164H234.925L230.032 18.796V33.2789H226.155H226.163Z" fill="black"/>
</svg>
