<svg aria-hidden="true" style="position: absolute; width: 0; height: 0; overflow: hidden;" version="1.1" xmlns="http://www.w3.org/2000/svg" xmlns:xlink="http://www.w3.org/1999/xlink">
<defs>
<symbol id="icon-burger-menu" viewBox="0 0 32 32">
<path fill="#fff" style="fill: var(--color1, #fff)" d="M15.823 31.45c8.634 0 15.627-6.993 15.627-15.627s-6.993-15.627-15.627-15.627c-8.634 0-15.627 6.993-15.627 15.627s6.993 15.627 15.627 15.627z"></path>
<path fill="#000" style="fill: var(--color2, #000)" d="M15.823 31.646c-8.712 0-15.823-7.111-15.823-15.823s7.111-15.823 15.823-15.823c8.712 0 15.823 7.111 15.823 15.823s-7.111 15.823-15.823 15.823zM15.823 0.391c-8.517 0-15.432 6.915-15.432 15.432s6.915 15.432 15.432 15.432c8.517 0 15.432-6.915 15.432-15.432s-6.915-15.432-15.432-15.432z"></path>
<path fill="#e9daff" style="fill: var(--color3, #e9daff); stroke: var(--color2, #000)" stroke="#000" stroke-linejoin="miter" stroke-linecap="butt" stroke-miterlimit="4" stroke-width="0.5926" d="M7.911 11.713h15.677c0.634 0 1.169 0.513 1.195 1.147s-0.467 1.147-1.101 1.147h-15.677c-0.634 0-1.169-0.513-1.194-1.147s0.467-1.147 1.101-1.147z"></path>
<path fill="#bc8cff" style="fill: var(--color4, #bc8cff); stroke: var(--color2, #000)" stroke="#000" stroke-linejoin="miter" stroke-linecap="butt" stroke-miterlimit="4" stroke-width="0.5926" d="M23.735 17.639h-15.677c-0.634 0-1.169 0.513-1.194 1.147s0.467 1.147 1.101 1.147h15.677c0.634 0 1.169-0.513 1.195-1.147s-0.467-1.147-1.101-1.147z"></path>
</symbol>
<symbol id="icon-left" viewBox="0 0 32 32">
<path fill="#fff" style="fill: var(--color1, #fff)" d="M15.805 31.421c-8.624 0-15.61-6.985-15.61-15.61s6.985-15.61 15.61-15.61c8.624 0 15.61 6.985 15.61 15.61s-6.985 15.61-15.61 15.61z"></path>
<path fill="#000" style="fill: var(--color2, #000)" d="M15.805 31.616c8.702 0 15.805-7.102 15.805-15.805s-7.102-15.805-15.805-15.805c-8.702 0-15.805 7.102-15.805 15.805s7.102 15.805 15.805 15.805zM15.805 0.396c8.507 0 15.415 6.907 15.415 15.415s-6.907 15.415-15.415 15.415c-8.507 0-15.415-6.907-15.415-15.415s6.907-15.415 15.415-15.415z"></path>
<path fill="#d6fff3" style="fill: var(--color5, #d6fff3); stroke: var(--color2, #000)" stroke="#000" stroke-linejoin="miter" stroke-linecap="butt" stroke-miterlimit="4" stroke-width="0.3902" d="M23.329 14.682h-14.829c-0.647 0-1.171 0.524-1.171 1.171s0.524 1.171 1.171 1.171h14.829c0.647 0 1.171-0.524 1.171-1.171s-0.524-1.171-1.171-1.171z"></path>
<path fill="#49dda8" style="fill: var(--color6, #49dda8)" d="M13.601 12.988c0.57-0.493 0.633-1.356 0.139-1.926s-1.356-0.633-1.927-0.139l-4.427 3.83c-0.319 0.276-0.479 0.667-0.472 1.059-0.007 0.391 0.153 0.783 0.472 1.059l4.425 3.829c0.57 0.494 1.433 0.431 1.927-0.139s0.431-1.433-0.139-1.926l-3.262-2.822 3.264-2.824z"></path>
<path fill="#000" style="fill: var(--color2, #000)" d="M13.74 11.062v0zM13.601 12.988v0zM11.814 10.922v0zM7.387 14.753v0zM6.915 15.811l0.39-0.007 0 0.007-0 0.007-0.39-0.007zM7.387 16.87v0zM11.812 20.699v0zM13.739 20.56v0zM13.599 18.634v0zM10.337 15.812l-0.255 0.295-0.341-0.295 0.341-0.295 0.255 0.295zM14.035 10.806c0.635 0.733 0.555 1.842-0.179 2.477l-0.511-0.59c0.407-0.352 0.452-0.968 0.099-1.376l0.59-0.511zM11.558 10.627c0.733-0.634 1.842-0.554 2.477 0.179l-0.59 0.511c-0.353-0.407-0.969-0.452-1.376-0.099l-0.511-0.59zM7.131 14.457l4.427-3.83 0.511 0.59-4.427 3.83-0.511-0.59zM6.525 15.818c-0.009-0.502 0.196-1.006 0.607-1.361l0.511 0.59c-0.228 0.197-0.342 0.476-0.337 0.756l-0.78 0.014zM7.305 15.819c-0.005 0.281 0.109 0.56 0.337 0.757l-0.511 0.59c-0.41-0.355-0.616-0.859-0.607-1.362l0.78 0.015zM7.642 16.575l4.425 3.829-0.511 0.59-4.425-3.829 0.511-0.59zM12.067 20.404c0.407 0.352 1.024 0.308 1.376-0.099l0.59 0.511c-0.635 0.733-1.744 0.813-2.477 0.179l0.511-0.59zM13.443 20.305c0.353-0.407 0.308-1.023-0.099-1.376l0.511-0.59c0.733 0.635 0.813 1.744 0.179 2.477l-0.59-0.511zM13.344 18.929l-3.262-2.822 0.511-0.59 3.262 2.822-0.511 0.59zM13.856 13.283l-3.264 2.824-0.511-0.59 3.264-2.824 0.511 0.59z"></path>
</symbol>
<symbol id="icon-right" viewBox="0 0 32 32">
<path fill="#fff" style="fill: var(--color1, #fff)" d="M15.805 31.421c8.624 0 15.61-6.985 15.61-15.61s-6.985-15.61-15.61-15.61c-8.624 0-15.61 6.985-15.61 15.61s6.985 15.61 15.61 15.61z"></path>
<path fill="#000" style="fill: var(--color2, #000)" d="M15.805 31.616c-8.702 0-15.805-7.102-15.805-15.805s7.102-15.805 15.805-15.805c8.702 0 15.805 7.102 15.805 15.805s-7.102 15.805-15.805 15.805zM15.805 0.396c-8.507 0-15.415 6.907-15.415 15.415s6.907 15.415 15.415 15.415c8.507 0 15.415-6.907 15.415-15.415s-6.907-15.415-15.415-15.415z"></path>
<path fill="#d6fff3" style="fill: var(--color5, #d6fff3); stroke: var(--color2, #000)" stroke="#000" stroke-linejoin="miter" stroke-linecap="butt" stroke-miterlimit="4" stroke-width="0.3902" d="M8.28 14.682h14.829c0.647 0 1.171 0.524 1.171 1.171s-0.524 1.171-1.171 1.171h-14.829c-0.647 0-1.171-0.524-1.171-1.171s0.524-1.171 1.171-1.171z"></path>
<path fill="#49dda8" style="fill: var(--color6, #49dda8)" d="M18.009 12.988c-0.57-0.493-0.633-1.356-0.139-1.926s1.356-0.633 1.927-0.139l4.427 3.83c0.319 0.276 0.479 0.667 0.472 1.059 0.007 0.391-0.153 0.783-0.472 1.059l-4.425 3.829c-0.57 0.494-1.433 0.431-1.927-0.139s-0.431-1.433 0.139-1.926l3.262-2.822-3.264-2.824z"></path>
<path fill="#000" style="fill: var(--color2, #000)" d="M17.87 11.062v0zM18.009 12.988v0zM19.796 10.922v0zM24.223 14.753v0zM24.695 15.811l-0.39-0.007-0 0.007 0 0.007 0.39-0.007zM24.223 16.87v0zM19.798 20.699v0zM17.871 20.56v0zM18.010 18.634v0zM21.272 15.812l0.255 0.295 0.341-0.295-0.341-0.295-0.255 0.295zM17.575 10.806c-0.635 0.733-0.555 1.842 0.179 2.477l0.511-0.59c-0.407-0.352-0.452-0.968-0.099-1.376l-0.59-0.511zM20.051 10.627c-0.733-0.634-1.842-0.554-2.477 0.179l0.59 0.511c0.353-0.407 0.969-0.452 1.376-0.099l0.511-0.59zM24.478 14.457l-4.427-3.83-0.511 0.59 4.427 3.83 0.511-0.59zM25.085 15.818c0.009-0.502-0.196-1.006-0.607-1.361l-0.511 0.59c0.228 0.197 0.342 0.476 0.337 0.756l0.78 0.014zM24.305 15.819c0.005 0.281-0.109 0.56-0.337 0.757l0.511 0.59c0.41-0.355 0.616-0.859 0.607-1.362l-0.78 0.015zM23.968 16.575l-4.425 3.829 0.511 0.59 4.425-3.829-0.511-0.59zM19.542 20.404c-0.407 0.352-1.024 0.308-1.376-0.099l-0.59 0.511c0.635 0.733 1.744 0.813 2.477 0.179l-0.511-0.59zM18.166 20.305c-0.353-0.407-0.308-1.023 0.099-1.376l-0.511-0.59c-0.733 0.635-0.814 1.744-0.179 2.477l0.59-0.511zM18.266 18.929l3.262-2.822-0.511-0.59-3.262 2.822 0.511 0.59zM17.753 13.283l3.264 2.824 0.511-0.59-3.264-2.824-0.511 0.59z"></path>
</symbol>
<symbol id="icon-close" viewBox="0 0 32 32">
<path fill="#fff" style="fill: var(--color1, #fff)" d="M15.805 31.706c8.624 0 15.61-6.985 15.61-15.61s-6.985-15.61-15.61-15.61c-8.624 0-15.61 6.985-15.61 15.61s6.985 15.61 15.61 15.61z"></path>
<path fill="#000" style="fill: var(--color2, #000)" d="M15.805 31.902c-8.702 0-15.805-7.102-15.805-15.805s7.102-15.805 15.805-15.805c8.702 0 15.805 7.102 15.805 15.805s-7.102 15.805-15.805 15.805zM15.805 0.682c-8.507 0-15.415 6.907-15.415 15.415s6.907 15.415 15.415 15.415c8.507 0 15.415-6.907 15.415-15.415s-6.907-15.415-15.415-15.415z"></path>
<path fill="#eae2fe" style="fill: var(--color7, #eae2fe); stroke: var(--color2, #000)" stroke="#000" stroke-linejoin="miter" stroke-linecap="butt" stroke-miterlimit="4" stroke-width="0.3902" d="M11.367 9.77l10.486 10.923c0.459 0.478 0.459 1.253 0 1.731v0c-0.459 0.478-1.203 0.478-1.661 0l-10.486-10.923c-0.459-0.478-0.459-1.253 0-1.731v0c0.459-0.478 1.203-0.478 1.661 0z"></path>
<path fill="#ab8dff" style="fill: var(--color8, #ab8dff); stroke: var(--color2, #000)" stroke="#000" stroke-linejoin="miter" stroke-linecap="butt" stroke-miterlimit="4" stroke-width="0.3902" d="M20.242 9.77l-10.486 10.923c-0.459 0.478-0.459 1.253 0 1.731v0c0.459 0.478 1.203 0.478 1.661 0l10.486-10.923c0.459-0.478 0.459-1.253 0-1.731v0c-0.459-0.478-1.203-0.478-1.661 0z"></path>
</symbol>
<symbol id="icon-mealco-green" viewBox="0 0 141 32">
<path fill="#0a0909" style="fill: var(--color60, #0a0909)" d="M46.63 8.872c-5.696 0-10.717 4.75-10.717 11.547 0 5.735 4.793 11.087 10.793 11.087 4.576 0 8.543-2.868 10.196-7.322h-3.967c-1.272 2.342-3.598 3.623-6.065 3.623-3.217 0-6.065-2.342-6.967-5.888h17.609c0.152-0.755 0.152-1.357 0.152-2.036-0.022-6.107-4.815-11.011-11.033-11.011zM39.891 18.832c0.304-3.699 3.598-6.261 6.815-6.261 3.446 0 6.598 2.638 6.891 6.261h-13.706z"></path>
<path fill="#0a0909" style="fill: var(--color60, #0a0909)" d="M78.097 12.494c-1.728-2.495-4.348-3.623-7.424-3.623-6.217 0-11.087 4.827-11.087 11.7 0 6.184 5.022 10.945 11.239 10.945 3 0 5.696-1.281 7.196-3.853h0.076v3.316h3.967v-21.507h-3.967v3.021zM70.76 27.817c-4.043 0-7.272-3.546-7.272-7.541 0-4.225 3.293-7.694 7.272-7.694 4.424 0 7.424 3.47 7.424 7.694-0.011 4.072-3.228 7.541-7.424 7.541z"></path>
<path fill="#0a0909" style="fill: var(--color60, #0a0909)" d="M90.532 2.316h-3.967v28.676h3.967v-28.676z"></path>
<path fill="#0a0909" style="fill: var(--color60, #0a0909)" d="M104.706 12.571c2.924 0 4.793 1.51 6 3.995h4.424c-1.272-4.608-5.696-7.694-10.489-7.694-6.217 0-10.87 5.057-10.87 11.547 0 6.107 4.793 11.087 10.87 11.087 4.641 0 8.772-2.791 10.413-7.618h-4.424c-1.12 2.419-3.293 3.918-6 3.918-4.043 0-6.891-3.316-6.891-7.618 0-4.367 2.772-7.618 6.967-7.618z"></path>
<path fill="#0a0909" style="fill: var(--color60, #0a0909)" d="M128.456 8.872c-6.522 0-11.619 4.827-11.619 11.394 0 6.107 5.315 11.241 11.315 11.241 6.739 0 11.544-5.429 11.619-11.164 0.077-6.786-5.467-11.47-11.315-11.47zM128.238 27.817c-4.043 0-7.348-3.546-7.348-7.618 0-4.225 3.446-7.618 7.424-7.618 4.12 0 7.489 3.393 7.489 7.541 0 4.367-3.369 7.694-7.565 7.694z"></path>
<path fill="#0a0909" style="fill: var(--color60, #0a0909)" d="M24.076 8.872c-3.294 0-5.467 1.204-6.967 3.623-1.054-2.266-3.826-3.623-6.598-3.623s-4.348 0.908-6.065 2.944h-0.076v-2.342h-3.674v21.507h3.967v-12.072c0-4.225 1.728-6.337 5.25-6.337 2.848 0 4.794 1.664 4.794 5.888v12.521h3.967v-12.072c0-4.301 1.5-6.26 5.022-6.26 3.369 0 5.022 2.266 5.022 6.337v11.996h3.967v-13.046c0.011-5.593-3.065-9.062-8.609-9.062z"></path>
<path fill="#49dda8" style="fill: var(--color6, #49dda8)" d="M23.522 1.538c-0.011-0.055-0.076-0.088-0.131-0.066-0.228 0.109-0.837 0.361-1.478 0.361-5.272-0.066-4.587 4.028-4.511 4.028l-0.272 0.558-0.348-0.711c0.087 0 0.957-5.199-5.728-5.111-0.848 0-1.63-0.339-1.902-0.471-0.054-0.022-0.12 0-0.13 0.066-0.12 0.482-0.489 2.463 0.641 4.564 0.13 0.241 0.348 0.558 0.663 0.887 0.196 0.208 0.435 0.416 0.707 0.602 1.011 0.711 2.522 1.16 4.533 0.241 0.685 0.525 1.207 2.145 1.457 3.251 0.022 0.098 0.163 0.098 0.185-0.011 0.12-0.821 0.315-2.091 0.663-2.616 0.152-0.263 0.304-0.46 0.5-0.646-0.011 0.011 0.011-0.011 0 0 2 0.919 3.38 0.109 4.12-0.668 0.054-0.055 0.087-0.098 0.13-0.153 0.174-0.197 0.315-0.394 0.391-0.547 0.87-1.62 0.609-3.141 0.511-3.557z"></path>
</symbol>
<symbol id="icon-star-list" viewBox="0 0 32 32">
<path d="M31.269 15.328h2.133v-2.133h-2.133v2.133zM17.233 15.328l-1.508-1.509-3.643 3.642h5.151v-2.133zM27.164 5.399l1.508 1.509 1.521-1.52-1.532-1.509-1.497 1.52zM26.456 4.702l1.497-1.52-1.508-1.485-1.497 1.496 1.508 1.509zM16.536 14.621h-2.133v5.15l3.642-3.641-1.508-1.509zM16.536 1.088h2.133v-2.133h-2.133v2.133zM15.545 1.088v-2.133h-2.133v2.133h2.133zM15.545 14.621l-1.508 1.509 3.641 3.636v-5.146h-2.133zM5.615 4.702l1.508-1.509-1.508-1.506-1.508 1.507 1.508 1.509zM4.918 5.399l-1.508-1.509-1.508 1.508 1.507 1.509 1.509-1.508zM14.838 15.328v2.133h5.147l-3.638-3.641-1.509 1.508zM0.802 15.328v-2.133h-2.133v2.133h2.133zM0.802 16.319h-2.133v2.133h2.133v-2.133zM14.838 16.319l1.509 1.508 3.638-3.641h-5.147v2.133zM4.918 26.248l-1.509-1.508-1.507 1.509 1.508 1.508 1.508-1.508zM5.615 26.945l-1.508 1.509 1.508 1.507 1.508-1.507-1.508-1.509zM15.545 17.027h2.133v-5.146l-3.641 3.636 1.508 1.509zM15.545 31.55h-2.133v2.133h2.133v-2.133zM16.536 31.55v2.133h2.133v-2.133h-2.133zM16.536 17.027l1.508-1.509-3.642-3.641v5.15h2.133zM26.456 26.945l-1.508 1.509 1.497 1.496 1.508-1.485-1.497-1.52zM27.164 26.248l1.497 1.52 1.532-1.508-1.521-1.52-1.508 1.509zM17.233 16.319v-2.133h-5.151l3.643 3.642 1.508-1.509zM31.269 16.319v2.133h2.133v-2.133h-2.133zM31.269 13.195h-14.036v4.267h14.036v-4.267zM18.742 16.837l9.93-9.929-3.017-3.017-9.93 9.929 3.017 3.017zM28.66 3.879l-0.708-0.697-2.993 3.040 0.708 0.697 2.993-3.041zM24.948 3.194l-9.92 9.918 3.017 3.017 9.92-9.918-3.017-3.017zM18.67 14.621v-13.533h-4.267v13.533h4.267zM16.536-1.045h-0.991v4.267h0.991v-4.267zM13.412 1.088v13.533h4.267v-13.533h-4.267zM17.053 13.111l-9.931-9.918-3.015 3.019 9.931 9.918 3.015-3.019zM4.107 3.194l-0.697 0.697 3.017 3.017 0.697-0.697-3.017-3.017zM3.409 6.907l9.92 9.929 3.018-3.016-9.92-9.929-3.018 3.016zM14.838 13.195h-14.036v4.267h14.036v-4.267zM-1.331 15.328v0.991h4.267v-0.991h-4.267zM0.802 18.452h14.036v-4.267h-14.036v4.267zM13.328 14.811l-9.92 9.929 3.018 3.016 9.92-9.929-3.018-3.016zM3.41 27.756l0.697 0.697 3.017-3.017-0.697-0.697-3.017 3.017zM7.122 28.454l9.931-9.918-3.015-3.019-9.931 9.918 3.015 3.019zM13.412 17.027v14.523h4.267v-14.523h-4.267zM15.545 33.683h0.991v-4.267h-0.991v4.267zM18.67 31.55v-14.523h-4.267v14.523h4.267zM15.028 18.535l9.92 9.918 3.017-3.017-9.92-9.918-3.017 3.017zM27.953 28.465l0.708-0.697-2.993-3.040-0.708 0.697 2.993 3.040zM28.672 24.739l-9.93-9.929-3.017 3.017 9.93 9.929 3.017-3.017zM17.233 18.452h14.036v-4.267h-14.036v4.267zM33.402 16.319v-0.991h-4.267v0.991h4.267z"></path>
</symbol>
<symbol id="icon-mealco" viewBox="0 0 138 32">
<path d="M45.686 8.706c-5.665 0-10.659 4.725-10.659 11.485 0 5.704 4.767 11.027 10.735 11.027 4.551 0 8.497-2.852 10.14-7.283h-3.946c-1.265 2.33-3.578 3.603-6.032 3.603-3.2 0-6.032-2.33-6.93-5.857h17.513c0.151-0.751 0.151-1.35 0.151-2.025-0.022-6.074-4.789-10.951-10.973-10.951zM38.984 18.612c0.303-3.679 3.578-6.227 6.778-6.227 3.427 0 6.562 2.623 6.854 6.227h-13.632z"></path>
<path d="M76.983 12.309c-1.719-2.482-4.324-3.603-7.384-3.603-6.184 0-11.027 4.801-11.027 11.637 0 6.151 4.995 10.886 11.178 10.886 2.984 0 5.665-1.274 7.157-3.832h0.076v3.298h3.946v-21.391h-3.946v3.005zM69.686 27.549c-4.022 0-7.232-3.527-7.232-7.5 0-4.202 3.276-7.653 7.232-7.653 4.4 0 7.384 3.451 7.384 7.653-0.011 4.050-3.211 7.5-7.384 7.5z"></path>
<path d="M89.351 2.185h-3.946v28.521h3.946v-28.521z"></path>
<path d="M103.448 12.385c2.908 0 4.767 1.502 5.968 3.973h4.4c-1.264-4.583-5.665-7.653-10.432-7.653-6.184 0-10.811 5.029-10.811 11.485 0 6.074 4.767 11.027 10.811 11.027 4.616 0 8.724-2.776 10.357-7.576h-4.4c-1.113 2.406-3.275 3.897-5.968 3.897-4.022 0-6.854-3.298-6.854-7.577 0-4.343 2.757-7.576 6.93-7.576z"></path>
<path d="M127.069 8.706c-6.487 0-11.556 4.801-11.556 11.332 0 6.074 5.286 11.18 11.254 11.18 6.703 0 11.481-5.399 11.557-11.104 0.075-6.749-5.438-11.408-11.255-11.408zM126.853 27.549c-4.022 0-7.308-3.527-7.308-7.577 0-4.202 3.427-7.576 7.384-7.576 4.097 0 7.448 3.375 7.448 7.5 0 4.343-3.351 7.653-7.524 7.653z"></path>
<path d="M23.254 8.706c-3.276 0-5.438 1.197-6.93 3.603-1.049-2.253-3.805-3.603-6.562-3.603s-4.324 0.904-6.032 2.928h-0.076v-2.33h-3.654v21.391h3.946v-12.007c0-4.202 1.719-6.303 5.222-6.303 2.832 0 4.768 1.655 4.768 5.857v12.453h3.946v-12.007c0-4.278 1.492-6.227 4.995-6.227 3.351 0 4.994 2.253 4.994 6.303v11.931h3.946v-12.976c0.011-5.563-3.049-9.014-8.562-9.014z"></path>
<path d="M22.703 1.412c-0.011-0.054-0.076-0.087-0.13-0.065-0.227 0.109-0.832 0.359-1.47 0.359-5.243-0.065-4.562 4.006-4.486 4.006l-0.27 0.555-0.346-0.708c0.086 0 0.951-5.171-5.697-5.084-0.843 0-1.622-0.337-1.892-0.468-0.054-0.022-0.119 0-0.13 0.065-0.119 0.479-0.487 2.449 0.638 4.539 0.13 0.239 0.346 0.555 0.659 0.882 0.195 0.207 0.432 0.414 0.703 0.599 1.005 0.708 2.508 1.154 4.508 0.239 0.681 0.523 1.2 2.134 1.449 3.233 0.022 0.098 0.162 0.098 0.184-0.011 0.119-0.816 0.314-2.079 0.659-2.602 0.151-0.261 0.303-0.457 0.497-0.642-0.011 0.011 0.011-0.011 0 0 1.989 0.914 3.362 0.109 4.097-0.664 0.054-0.054 0.087-0.098 0.13-0.152 0.173-0.196 0.314-0.392 0.389-0.544 0.865-1.611 0.605-3.124 0.508-3.538z"></path>
</symbol>
</defs>
</svg>
