<svg width="71" height="71" viewBox="0 0 71 71" fill="none" xmlns="http://www.w3.org/2000/svg">
<g clip-path="url(#clip0_25_18065)">
<path d="M62.2678 15.4887C67.7872 21.907 70.5321 30.2543 69.899 38.6957C69.2659 47.1371 65.3066 54.9817 58.8916 60.5048L59.0674 60.7158L58.8916 60.5048C52.4636 66.0141 44.1113 68.7458 35.6701 68.0995C27.229 67.4533 19.3898 63.4819 13.8755 57.0583C8.36529 50.6307 5.63301 42.2781 6.27931 33.8367C6.9256 25.3953 10.8976 17.556 17.322 12.0422C23.7426 6.54678 32.0812 3.82328 40.5077 4.46944C48.9342 5.1156 56.7601 9.07864 62.2678 15.4887Z" fill="black" stroke="black" stroke-width="1.5"/>
<path d="M57.3793 14.4337C62.8988 20.8519 65.6436 29.1992 65.0105 37.6407C64.3774 46.0821 60.4182 53.9266 54.0031 59.4497L54.1789 59.6608L54.0031 59.4497C47.5748 64.9581 39.2226 67.6893 30.7818 67.043C22.3409 66.3968 14.5018 62.426 8.98701 56.0032C3.47635 49.5756 0.744094 41.2225 1.39107 32.7808C2.03805 24.3391 6.01129 16.4999 12.4371 10.9871C18.8575 5.4928 27.1953 2.76996 35.621 3.41611C44.0466 4.06226 51.8718 8.02461 57.3793 14.4337Z" fill="#FBB251" stroke="black" stroke-width="1.5"/>
<path d="M32.2383 47.603V44.2827C30.25 44.0306 28.3413 43.3451 26.6469 42.2747L26.1519 38.5782C28.4273 40.4004 31.244 41.4142 34.1586 41.4601C36.9529 41.4601 38.4378 40.4391 38.4378 38.4594C38.4378 36.918 37.2442 36.0158 35.1202 35.6962L31.684 35.2013C28.2901 34.7063 26.1237 33.1621 26.1237 29.9294C26.1237 26.6968 28.3862 24.6039 32.1789 24.1372V20.8169H35.6718V24.109C37.5356 24.3409 39.108 24.8641 40.2139 25.5938L40.6805 29.2903C38.7572 27.8127 36.4084 26.9954 33.9833 26.9598C31.2484 26.9598 29.5288 27.7772 29.5288 29.6099C29.5288 31.007 30.5498 31.765 32.2666 31.9969L35.7029 32.4635C39.5153 32.9868 41.8458 34.8506 41.8458 38.0521C41.8458 41.692 39.2834 43.8189 35.7311 44.2742V47.5945L32.2383 47.603Z" fill="black"/>
</g>
<defs>
<clipPath id="clip0_25_18065">
<rect width="70" height="70" fill="white" transform="translate(0.637939 0.76001)"/>
</clipPath>
</defs>
</svg>
