<svg width="69" height="76" viewBox="0 0 69 76" fill="none" xmlns="http://www.w3.org/2000/svg">
<path d="M36.431 4.16956C34.4228 4.1692 32.4342 4.56443 30.5788 5.33268C28.7234 6.10093 27.0375 7.22715 25.6173 8.64703C24.1972 10.0669 23.0707 11.7526 22.3021 13.6079C21.5335 15.4632 21.1379 17.4517 21.1379 19.4599H26.3546C26.3546 16.7904 27.4151 14.2302 29.3027 12.3426C31.1903 10.4549 33.7505 9.39447 36.4201 9.39447C39.0896 9.39447 41.6498 10.4549 43.5374 12.3426C45.425 14.2302 46.4855 16.7904 46.4855 19.4599H51.7022C51.7022 15.408 50.0939 11.5217 47.2305 8.65479C44.3672 5.78784 40.483 4.17465 36.431 4.16956Z" fill="white" stroke="black"/>
<path d="M63.0883 75.24H9.77379C9.09182 75.2415 8.41763 75.0951 7.79774 74.8108C7.17786 74.5264 6.62704 74.111 6.1833 73.5932C5.73956 73.0753 5.41346 72.4673 5.22751 71.8112C5.04156 71.155 5.00019 70.4663 5.10624 69.7927L12.4947 22.8261C12.6691 21.7142 13.2355 20.7014 14.0915 19.9707C14.9476 19.24 16.0368 18.8397 17.1623 18.8422H55.708C56.8335 18.8397 57.9227 19.24 58.7788 19.9707C59.6348 20.7014 60.2012 21.7142 60.3756 22.8261L67.7558 69.7927C67.8619 70.4663 67.8205 71.155 67.6345 71.8112C67.4486 72.4673 67.1225 73.0753 66.6788 73.5932C66.235 74.111 65.6842 74.5264 65.0643 74.8108C64.4444 75.0951 63.7702 75.2415 63.0883 75.24Z" fill="white" stroke="black"/>
<path d="M36.3596 4.11194C32.3044 4.11194 28.4152 5.72288 25.5477 8.59038C22.6802 11.4579 21.0693 15.347 21.0693 19.4023H26.286C26.3296 16.7612 27.4094 14.243 29.2925 12.3907C31.1757 10.5384 33.7113 9.50037 36.3528 9.50037C38.9942 9.50037 41.5299 10.5384 43.413 12.3907C45.2962 14.243 46.376 16.7612 46.4196 19.4023H51.6363C51.6363 15.3494 50.0272 11.4623 47.1627 8.59523C44.2982 5.72813 40.4125 4.11558 36.3596 4.11194Z" fill="#FBFEFD" stroke="black"/>
<path d="M63.0169 75.1824H9.69966C9.01783 75.1834 8.34387 75.0367 7.72421 74.7522C7.10455 74.4677 6.55394 74.0523 6.11029 73.5346C5.66665 73.0168 5.34052 72.409 5.15439 71.7531C4.96825 71.0971 4.92653 70.4087 5.0321 69.7351L12.4233 22.7685C12.5987 21.657 13.1654 20.6449 14.0213 19.9144C14.8771 19.1839 15.9657 18.7832 17.0909 18.7846H55.6366C56.7621 18.7821 57.8513 19.1824 58.7074 19.9131C59.5634 20.6437 60.1298 21.6566 60.3042 22.7685L67.6844 69.7351C67.7905 70.4087 67.7491 71.0974 67.5632 71.7535C67.3772 72.4097 67.0511 73.0177 66.6074 73.5355C66.1636 74.0534 65.6128 74.4688 64.9929 74.7531C64.373 75.0375 63.6988 75.1839 63.0169 75.1824Z" fill="#FBFEFD" stroke="black"/>
<path d="M36.291 4.05432C34.2828 4.05396 32.2942 4.44919 30.4388 5.21744C28.5833 5.98569 26.8974 7.11192 25.4773 8.53179C24.0572 9.95167 22.9306 11.6374 22.1621 13.4927C21.3935 15.348 20.9979 17.3365 20.9979 19.3447H26.2146C26.2582 16.7036 27.338 14.1854 29.2211 12.3331C31.1043 10.4808 33.6399 9.44275 36.2814 9.44275C38.9228 9.44275 41.4585 10.4808 43.3416 12.3331C45.2248 14.1854 46.3046 16.7036 46.3482 19.3447H51.5649C51.5649 15.2923 49.9562 11.4056 47.0923 8.53859C44.2283 5.67156 40.3434 4.05869 36.291 4.05432Z" fill="#F8FEFC" stroke="black"/>
<path d="M62.9455 75.1246H9.63378C8.9518 75.1262 8.27761 74.9797 7.65773 74.6954C7.03784 74.4111 6.48703 73.9957 6.04329 73.4778C5.59955 72.9599 5.27345 72.3519 5.0875 71.6958C4.90155 71.0397 4.86017 70.351 4.96622 69.6773L12.3547 22.7107C12.529 21.5988 13.0954 20.586 13.9515 19.8553C14.8076 19.1247 15.8968 18.7244 17.0222 18.7268H55.5653C56.6881 18.7288 57.7734 19.1309 58.6264 19.8611C59.4793 20.5913 60.0441 21.6016 60.2191 22.7107L67.5993 69.6773C67.7047 70.3498 67.6633 71.0371 67.478 71.692C67.2926 72.347 66.9677 72.9541 66.5256 73.4716C66.0835 73.9891 65.5346 74.4048 64.9166 74.6902C64.2986 74.9755 63.6262 75.1237 62.9455 75.1246Z" fill="#F8FEFC" stroke="black"/>
<path d="M36.2196 3.9856C34.2114 3.98524 32.2228 4.38047 30.3674 5.14872C28.512 5.91697 26.8261 7.04319 25.4059 8.46307C23.9858 9.88295 22.8593 11.5687 22.0907 13.424C21.3221 15.2792 20.9265 17.2678 20.9265 19.276H26.1432C26.1432 16.6064 27.2037 14.0463 29.0913 12.1586C30.9789 10.271 33.5391 9.21051 36.2086 9.21051C38.8782 9.21051 41.4383 10.271 43.326 12.1586C45.2136 14.0463 46.2741 16.6064 46.2741 19.276H51.4908C51.4908 15.224 49.8825 11.3378 47.0191 8.47083C44.1558 5.60388 40.2715 3.99069 36.2196 3.9856Z" fill="#F4FDFA" stroke="black"/>
<path d="M62.8768 75.0697H9.56238C8.88028 75.0708 8.20604 74.924 7.58616 74.6394C6.96628 74.3548 6.41551 73.9391 5.97182 73.421C5.52812 72.9029 5.20207 72.2948 5.01614 71.6385C4.8302 70.9822 4.78881 70.2934 4.89482 69.6196L12.2833 22.6558C12.4576 21.5439 13.024 20.5311 13.8801 19.8004C14.7362 19.0697 15.8254 18.6694 16.9508 18.6719H55.4966C56.6221 18.6694 57.7113 19.0697 58.5674 19.8004C59.4234 20.5311 59.9898 21.5439 60.1642 22.6558L67.5444 69.6224C67.65 70.296 67.6083 70.9845 67.4221 71.6404C67.236 72.2963 66.9099 72.9041 66.4662 73.4219C66.0226 73.9396 65.472 74.3551 64.8523 74.6395C64.2326 74.924 63.5587 75.0708 62.8768 75.0697Z" fill="#F4FDFA" stroke="black"/>
<path d="M36.1482 3.93896C34.14 3.93896 32.1515 4.33455 30.2962 5.10314C28.4409 5.87172 26.7552 6.99825 25.3353 8.41838C23.9155 9.83851 22.7892 11.5244 22.021 13.3799C21.2527 15.2353 20.8575 17.2239 20.8579 19.2321H26.0745C26.0525 17.8961 26.2966 16.5691 26.7926 15.3284C27.2886 14.0877 28.0266 12.9581 28.9635 12.0056C29.9005 11.053 31.0177 10.2964 32.2501 9.78001C33.4824 9.26359 34.8052 8.99762 36.1414 8.99762C37.4775 8.99762 38.8003 9.26359 40.0327 9.78001C41.265 10.2964 42.3822 11.053 43.3192 12.0056C44.2562 12.9581 44.9942 14.0877 45.4902 15.3284C45.9862 16.5691 46.2302 17.8961 46.2082 19.2321H51.4249C51.4249 15.1789 49.8159 11.2916 46.9514 8.42403C44.087 5.55649 40.2014 3.94333 36.1482 3.93896Z" fill="#F1FCF8" stroke="black"/>
<path d="M62.8055 75.0121H9.49374C8.81178 75.0128 8.13777 74.8657 7.51812 74.5809C6.89847 74.2961 6.3479 73.8804 5.9043 73.3625C5.4607 72.8445 5.13462 72.2366 4.9485 71.5805C4.76239 70.9244 4.72065 70.2358 4.82618 69.5621L12.2119 22.5955C12.3878 21.4843 12.9547 20.4724 13.8104 19.7421C14.6661 19.0117 15.7544 18.6108 16.8795 18.6116H55.4252C56.5506 18.6097 57.6395 19.0102 58.4954 19.7408C59.3513 20.4713 59.9179 21.4838 60.0928 22.5955L67.473 69.5621C67.579 70.2359 67.5376 70.9247 67.3517 71.5809C67.1658 72.2372 66.8397 72.8454 66.396 73.3634C65.9523 73.8815 65.4016 74.2972 64.7817 74.5818C64.1618 74.8665 63.4876 75.0133 62.8055 75.0121Z" fill="#F1FCF8" stroke="black"/>
<path d="M36.0796 3.88135C32.0236 3.88135 28.1337 5.49258 25.2657 8.3606C22.3977 11.2286 20.7865 15.1185 20.7865 19.1745H26.0032C25.9811 17.8385 26.2252 16.5115 26.7212 15.2708C27.2172 14.0301 27.9552 12.9005 28.8922 11.9479C29.8291 10.9954 30.9464 10.2388 32.1787 9.72239C33.411 9.20597 34.7338 8.94001 36.07 8.94001C37.4061 8.94001 38.7289 9.20597 39.9613 9.72239C41.1936 10.2388 42.3108 10.9954 43.2478 11.9479C44.1848 12.9005 44.9228 14.0301 45.4188 15.2708C45.9148 16.5115 46.1589 17.8385 46.1368 19.1745H51.3535C51.3542 15.1216 49.7458 11.2342 46.8818 8.36658C44.0178 5.49896 40.1325 3.88571 36.0796 3.88135Z" fill="#EDFCF6" stroke="black"/>
<path d="M62.7341 74.9544H9.42511C8.74301 74.9555 8.06877 74.8087 7.44889 74.5241C6.82902 74.2395 6.27824 73.8238 5.83455 73.3057C5.39086 72.7876 5.0648 72.1795 4.87887 71.5232C4.69294 70.8669 4.65155 70.1781 4.75756 69.5043L12.1433 22.5377C12.3182 21.4261 12.8847 20.4136 13.7407 19.683C14.5966 18.9524 15.6855 18.552 16.8108 18.5538H55.3539C56.4789 18.5531 57.5672 18.954 58.4229 19.6843C59.2786 20.4147 59.8455 21.4266 60.0214 22.5377L67.4017 69.5043C67.5072 70.1781 67.4655 70.8667 67.2793 71.5228C67.0932 72.1788 66.7671 72.7868 66.3235 73.3047C65.8799 73.8227 65.3294 74.2384 64.7097 74.5232C64.0901 74.8079 63.4161 74.9551 62.7341 74.9544Z" fill="#EDFCF6" stroke="black"/>
<path d="M36.0082 3.82361C31.9522 3.82361 28.0623 5.43484 25.1943 8.30286C22.3263 11.1709 20.7151 15.0607 20.7151 19.1167H25.9318C25.9318 16.4472 26.9922 13.887 28.8799 11.9994C30.7675 10.1117 33.3277 9.05127 35.9972 9.05127C38.6667 9.05127 41.2269 10.1117 43.1146 11.9994C45.0022 13.887 46.0627 16.4472 46.0627 19.1167H51.2793C51.2793 15.0645 49.6711 11.178 46.8079 8.31061C43.9446 5.44323 40.0604 3.82943 36.0082 3.82361Z" fill="#EAFBF5" stroke="black"/>
<path d="M62.6655 74.8968H9.35098C8.66888 74.8979 7.99465 74.7511 7.37477 74.4665C6.75489 74.1818 6.20411 73.7662 5.76042 73.2481C5.31673 72.73 4.99068 72.1219 4.80474 71.4656C4.61881 70.8093 4.57742 70.1205 4.68343 69.4467L12.0719 22.4801C12.2468 21.3685 12.8133 20.356 13.6693 19.6254C14.5252 18.8948 15.6141 18.4943 16.7395 18.4962H55.277C56.4023 18.4943 57.4912 18.8948 58.3472 19.6254C59.2031 20.356 59.7697 21.3685 59.9445 22.4801L67.3248 69.4467C67.4307 70.1198 67.3895 70.8079 67.204 71.4636C67.0186 72.1193 66.6932 72.727 66.2505 73.2449C65.8077 73.7629 65.2579 74.1787 64.639 74.4639C64.0202 74.749 63.3469 74.8967 62.6655 74.8968Z" fill="#EAFBF5" stroke="black"/>
<path d="M35.9368 3.76599C33.9286 3.76599 31.9401 4.16158 30.0848 4.93016C28.2295 5.69875 26.5438 6.82527 25.1239 8.24541C23.7041 9.66554 22.5778 11.3515 21.8096 13.2069C21.0413 15.0623 20.6461 17.0509 20.6465 19.0591H25.8631C25.8411 17.7231 26.0852 16.3961 26.5812 15.1554C27.0772 13.9147 27.8152 12.7852 28.7521 11.8326C29.6891 10.88 30.8063 10.1235 32.0387 9.60703C33.271 9.09061 34.5938 8.82465 35.93 8.82465C37.2661 8.82465 38.5889 9.09061 39.8213 9.60703C41.0536 10.1235 42.1708 10.88 43.1078 11.8326C44.0448 12.7852 44.7828 13.9147 45.2788 15.1554C45.7748 16.3961 46.0189 17.7231 45.9968 19.0591H51.2135C51.2135 15.006 49.6045 11.1186 46.74 8.25106C43.8756 5.38352 39.99 3.77036 35.9368 3.76599Z" fill="#E6FAF3" stroke="black"/>
<path d="M62.5941 74.839H9.28234C8.60038 74.8397 7.92638 74.6926 7.30673 74.4078C6.68708 74.123 6.1365 73.7073 5.69291 73.1894C5.24931 72.6714 4.92323 72.0635 4.73711 71.4074C4.55099 70.7513 4.50926 70.0627 4.61479 69.389L12.0033 22.4224C12.1781 21.3107 12.7447 20.2982 13.6006 19.5677C14.4566 18.8371 15.5455 18.4366 16.6708 18.4385H55.2138C56.3392 18.4366 57.4281 18.8371 58.284 19.5677C59.1399 20.2982 59.7065 21.3107 59.8814 22.4224L67.2616 69.389C67.3676 70.0628 67.3262 70.7516 67.1403 71.4079C66.9544 72.0641 66.6283 72.6723 66.1846 73.1903C65.7409 73.7084 65.1902 74.1241 64.5703 74.4087C63.9504 74.6934 63.2762 74.8402 62.5941 74.839Z" fill="#E6FAF3" stroke="black"/>
<path d="M35.8682 3.71106C31.8122 3.71106 27.9223 5.32229 25.0543 8.19031C22.1863 11.0583 20.5751 14.9482 20.5751 19.0042H25.7918C25.8354 16.3631 26.9152 13.8449 28.7983 11.9926C30.6815 10.1403 33.2171 9.10223 35.8586 9.10223C38.5 9.10223 41.0357 10.1403 42.9188 11.9926C44.802 13.8449 45.8818 16.3631 45.9254 19.0042H51.1421C51.1428 14.9513 49.5344 11.0639 46.6704 8.19629C43.8064 5.32867 39.9211 3.71543 35.8682 3.71106Z" fill="#E2FAF1" stroke="black"/>
<path d="M62.5227 74.7814H9.21094C8.52884 74.7826 7.8546 74.6357 7.23472 74.3511C6.61484 74.0665 6.06407 73.6508 5.62038 73.1327C5.17668 72.6147 4.85063 72.0065 4.6647 71.3502C4.47876 70.694 4.43737 70.0052 4.54338 69.3314L11.9318 22.3648C12.1067 21.2531 12.6733 20.2406 13.5292 19.51C14.3852 18.7795 15.4741 18.379 16.5994 18.3809H55.1424C56.2674 18.3801 57.3558 18.781 58.2115 19.5114C59.0672 20.2417 59.634 21.2536 59.81 22.3648L67.1847 69.3314C67.2902 70.0046 67.2486 70.6928 67.0628 71.3485C66.877 72.0041 66.5514 72.6118 66.1084 73.1297C65.6654 73.6476 65.1155 74.0633 64.4965 74.3485C63.8775 74.6336 63.2042 74.7813 62.5227 74.7814Z" fill="#E2FAF1" stroke="black"/>
<path d="M35.7968 3.65063C31.7408 3.65063 27.8509 5.26187 24.9829 8.12988C22.1149 10.9979 20.5037 14.8878 20.5037 18.9437H25.7204C25.7204 16.2742 26.7808 13.714 28.6685 11.8264C30.5561 9.93876 33.1163 8.8783 35.7858 8.8783C38.4553 8.8783 41.0155 9.93876 42.9032 11.8264C44.7908 13.714 45.8512 16.2742 45.8512 18.9437H51.0679C51.0679 14.8916 49.4597 11.005 46.5965 8.13764C43.7332 5.27026 39.849 3.65645 35.7968 3.65063Z" fill="#DFF9F0" stroke="black"/>
<path d="M62.454 74.7239H9.15056C8.46846 74.725 7.79422 74.5782 7.17434 74.2936C6.55446 74.0089 6.00369 73.5932 5.56 73.0752C5.11631 72.5571 4.79025 71.949 4.60432 71.2927C4.41838 70.6364 4.377 69.9476 4.483 69.2738L11.8632 22.3237C12.0375 21.2115 12.6038 20.1984 13.4598 19.4673C14.3158 18.7361 15.4051 18.3353 16.5308 18.337H55.0738C56.1995 18.3353 57.2888 18.7361 58.1448 19.4673C59.0008 20.1984 59.5671 21.2115 59.7414 22.3237L67.1216 69.2875C67.2254 69.9603 67.1824 70.6476 66.9954 71.3022C66.8085 71.9568 66.4821 72.5631 66.0386 73.0796C65.5952 73.5961 65.0452 74.0105 64.4264 74.2943C63.8077 74.5782 63.1348 74.7247 62.454 74.7239Z" fill="#DFF9F0" stroke="black"/>
<path d="M35.7254 3.59302C33.7172 3.59302 31.7287 3.98861 29.8734 4.75719C28.0181 5.52577 26.3324 6.6523 24.9125 8.07243C23.4926 9.49256 22.3664 11.1785 21.5982 13.0339C20.8299 14.8893 20.4347 16.8779 20.435 18.8861H25.6517C25.6953 16.245 26.7751 13.7269 28.6583 11.8746C30.5414 10.0223 33.0771 8.98419 35.7185 8.98419C38.36 8.98419 40.8956 10.0223 42.7788 11.8746C44.6619 13.7269 45.7417 16.245 45.7853 18.8861H51.002C51.002 14.833 49.3931 10.9456 46.5286 8.07809C43.6642 5.21054 39.7785 3.59738 35.7254 3.59302Z" fill="#DBF8EE" stroke="black"/>
<path d="M62.3826 74.6661H9.0709C8.38907 74.6672 7.71511 74.5204 7.09546 74.236C6.4758 73.9515 5.92518 73.5361 5.48154 73.0183C5.03789 72.5005 4.71177 71.8928 4.52563 71.2368C4.3395 70.5809 4.29778 69.8924 4.40335 69.2188L11.7918 22.2522C11.9653 21.141 12.5301 20.1283 13.3845 19.3968C14.2388 18.6653 15.3264 18.2631 16.4511 18.2628H55.0024C56.1281 18.261 57.2174 18.6619 58.0734 19.393C58.9294 20.1242 59.4957 21.1373 59.67 22.2495L67.0502 69.2161C67.1567 69.8899 67.1156 70.5789 66.9299 71.2354C66.7441 71.8919 66.4181 72.5002 65.9743 73.0184C65.5305 73.5366 64.9796 73.9523 64.3594 74.2367C63.7393 74.5212 63.0649 74.6677 62.3826 74.6661Z" fill="#DBF8EE" stroke="black"/>
<path d="M35.6568 3.53809C33.6486 3.53773 31.66 3.93296 29.8046 4.70121C27.9491 5.46946 26.2632 6.59568 24.8431 8.01556C23.4229 9.43544 22.2964 11.1212 21.5278 12.9764C20.7593 14.8317 20.3637 16.8203 20.3637 18.8285H25.5803C25.624 16.1874 26.7038 13.6692 28.5869 11.8169C30.4701 9.96457 33.0057 8.92652 35.6472 8.92652C38.2886 8.92652 40.8243 9.96457 42.7074 11.8169C44.5906 13.6692 45.6704 16.1874 45.714 18.8285H50.9307C50.9307 14.776 49.322 10.8894 46.458 8.02235C43.5941 5.15532 39.7092 3.54245 35.6568 3.53809Z" fill="#D8F8EC" stroke="black"/>
<path d="M62.3113 74.6086H8.99953C8.31756 74.6101 7.64336 74.4637 7.02348 74.1793C6.40359 73.895 5.85278 73.4796 5.40904 72.9617C4.9653 72.4439 4.6392 71.8359 4.45325 71.1797C4.2673 70.5236 4.22593 69.8349 4.33198 69.1613L11.7204 22.1947C11.8947 21.0825 12.461 20.0694 13.317 19.3382C14.173 18.6071 15.2623 18.2062 16.388 18.208H54.931C56.0564 18.2074 57.1451 18.6086 58.0009 19.3396C58.8566 20.0705 59.4232 21.083 59.5986 22.1947L66.9733 69.1613C67.0788 69.8344 67.0372 70.5224 66.8514 71.178C66.6656 71.8335 66.34 72.441 65.8969 72.9587C65.4539 73.4763 64.9039 73.8919 64.285 74.1767C63.666 74.4615 62.9926 74.6088 62.3113 74.6086Z" fill="#D8F8EC" stroke="black"/>
<path d="M35.5854 3.48035C33.5772 3.47999 31.5886 3.87522 29.7332 4.64347C27.8777 5.41172 26.1918 6.53794 24.7717 7.95782C23.3516 9.3777 22.225 11.0634 21.4565 12.9187C20.6879 14.774 20.2923 16.7625 20.2923 18.7707H25.509C25.509 16.1012 26.5694 13.541 28.4571 11.6534C30.3447 9.76573 32.9049 8.70526 35.5744 8.70526C38.2439 8.70526 40.8041 9.76573 42.6918 11.6534C44.5794 13.541 45.6399 16.1012 45.6399 18.7707H50.8565C50.8565 14.7188 49.2482 10.8325 46.3849 7.96558C43.5215 5.09863 39.6373 3.48544 35.5854 3.48035Z" fill="#D4F7EB" stroke="black"/>
<path d="M62.2426 74.548H8.92815C8.24618 74.5496 7.57198 74.4031 6.9521 74.1188C6.33221 73.8345 5.7814 73.4191 5.33766 72.9012C4.89392 72.3833 4.56782 71.7753 4.38187 71.1192C4.19592 70.4631 4.15454 69.7744 4.2606 69.1007L11.6491 22.1369C11.8234 21.025 12.3898 20.0121 13.2459 19.2815C14.1019 18.5508 15.1911 18.1505 16.3166 18.153H54.8624C55.9879 18.1505 57.0771 18.5508 57.9331 19.2815C58.7892 20.0121 59.3556 21.025 59.5299 22.1369L66.9102 69.1035C67.0158 69.7769 66.9741 70.4653 66.7879 71.1211C66.6018 71.7769 66.2756 72.3845 65.8319 72.9021C65.3882 73.4196 64.8376 73.8348 64.2179 74.119C63.5982 74.4031 62.9243 74.5495 62.2426 74.548Z" fill="#D4F7EB" stroke="black"/>
<path d="M35.5085 3.43652C31.4566 3.43798 27.5709 5.04768 24.705 7.91205C21.8391 10.7764 20.2273 14.6612 20.2236 18.7132H25.4403C25.4839 16.0721 26.5637 13.5539 28.4469 11.7016C30.33 9.84928 32.8657 8.81122 35.5071 8.81122C38.1486 8.81122 40.6842 9.84928 42.5674 11.7016C44.4505 13.5539 45.5303 16.0721 45.574 18.7132H50.7906C50.787 14.6617 49.1756 10.7773 46.3103 7.91302C43.4449 5.04873 39.56 3.4387 35.5085 3.43652Z" fill="#D1F6E9" stroke="black"/>
<path d="M62.1712 74.4932H8.8595C8.18014 74.4916 7.50913 74.3433 6.89237 74.0585C6.27561 73.7736 5.72767 73.3589 5.28602 72.8427C4.84436 72.3265 4.51943 71.7209 4.33345 71.0675C4.14746 70.4141 4.10481 69.7282 4.20842 69.0568L11.5804 22.0792C11.7548 20.9674 12.3212 19.9545 13.1772 19.2239C14.0333 18.4932 15.1225 18.0929 16.248 18.0953H54.791C55.9165 18.0929 57.0057 18.4932 57.8617 19.2239C58.7178 19.9545 59.2842 20.9674 59.4586 22.0792L66.8305 69.0568C66.9347 69.729 66.8922 70.4158 66.706 71.07C66.5197 71.7242 66.194 72.3303 65.7514 72.8468C65.3087 73.3632 64.7596 73.7778 64.1416 74.062C63.5236 74.3462 62.8514 74.4933 62.1712 74.4932Z" fill="#D1F6E9" stroke="black"/>
<path d="M35.4453 3.36511C33.4372 3.36475 31.4486 3.75998 29.5931 4.52823C27.7377 5.29649 26.0518 6.42271 24.6317 7.84259C23.2115 9.26246 22.085 10.9482 21.3164 12.8035C20.5478 14.6588 20.1522 16.6473 20.1522 18.6555H25.3689C25.4125 16.0144 26.4923 13.4962 28.3755 11.6439C30.2586 9.7916 32.7943 8.75354 35.4357 8.75354C38.0772 8.75354 40.6129 9.7916 42.496 11.6439C44.3791 13.4962 45.4589 16.0144 45.5026 18.6555H50.7192C50.7192 14.6031 49.1106 10.7164 46.2466 7.84938C43.3827 4.98235 39.4977 3.36948 35.4453 3.36511Z" fill="#CDF6E7" stroke="black"/>
<path d="M62.0999 74.4355H8.78814C8.10616 74.4371 7.43197 74.2906 6.81208 74.0063C6.1922 73.722 5.64138 73.3066 5.19764 72.7887C4.7539 72.2708 4.42781 71.6628 4.24186 71.0067C4.05591 70.3506 4.01453 69.6619 4.12058 68.9882L11.509 22.0216C11.6834 20.9097 12.2498 19.8969 13.1059 19.1662C13.9619 18.4356 15.0511 18.0353 16.1766 18.0377H54.7279C55.853 18.0364 56.9417 18.4371 57.7975 19.1676C58.6533 19.898 59.22 20.9102 59.3954 22.0216L66.7757 68.9882C66.8813 69.6625 66.8394 70.3517 66.6528 71.0082C66.4662 71.6648 66.1393 72.273 65.6948 72.7909C65.2502 73.3088 64.6986 73.724 64.0779 74.008C63.4573 74.2919 62.7824 74.4378 62.0999 74.4355Z" fill="#CDF6E7" stroke="black"/>
<path d="M35.374 3.3075C33.3658 3.30713 31.3772 3.70237 29.5217 4.47062C27.6663 5.23887 25.9804 6.36509 24.5603 7.78497C23.1401 9.20485 22.0136 10.8906 21.245 12.7459C20.4764 14.6011 20.0808 16.5897 20.0808 18.5979H25.2975C25.2975 17.276 25.5579 15.9672 26.0637 14.746C26.5695 13.5248 27.311 12.4152 28.2456 11.4805C29.1803 10.5459 30.2899 9.80443 31.5111 9.2986C32.7323 8.79276 34.0412 8.53241 35.363 8.53241C36.6848 8.53241 37.9937 8.79276 39.2148 9.2986C40.436 9.80443 41.5456 10.5459 42.4803 11.4805C43.415 12.4152 44.1564 13.5248 44.6622 14.746C45.1681 15.9672 45.4284 17.276 45.4284 18.5979H50.6451C50.6451 14.5459 49.0368 10.6597 46.1734 7.79273C43.3101 4.92578 39.4259 3.31259 35.374 3.3075Z" fill="#C9F5E5" stroke="black"/>
<path d="M62.0312 74.3806H8.71674C8.03463 74.3817 7.3604 74.2349 6.74052 73.9503C6.12064 73.6657 5.56987 73.25 5.12617 72.7319C4.68248 72.2138 4.35643 71.6057 4.1705 70.9494C3.98456 70.2931 3.94317 69.6044 4.04918 68.9305L11.4376 21.964C11.6136 20.855 12.1795 19.8452 13.0337 19.1164C13.8879 18.3875 14.9741 17.9875 16.097 17.9883H54.651C55.7764 17.9858 56.8657 18.3861 57.7217 19.1168C58.5778 19.8475 59.1442 20.8603 59.3185 21.9722L66.6988 68.9388C66.8035 69.612 66.7611 70.2999 66.5745 70.9551C66.388 71.6104 66.0617 72.2175 65.6182 72.7346C65.1746 73.2517 64.6243 73.6666 64.0051 73.9508C63.3859 74.2349 62.7125 74.3816 62.0312 74.3806Z" fill="#C9F5E5" stroke="black"/>
<path d="M35.3026 3.24976C31.2478 3.24976 27.3591 4.86032 24.4916 7.72723C21.6242 10.5941 20.013 14.4826 20.0122 18.5374H25.2289C25.2068 17.2014 25.4509 15.8744 25.9469 14.6337C26.4429 13.393 27.1809 12.2634 28.1179 11.3109C29.0549 10.3583 30.1721 9.60173 31.4044 9.08531C32.6368 8.56889 33.9596 8.30292 35.2957 8.30292C36.6319 8.30292 37.9547 8.56889 39.187 9.08531C40.4194 9.60173 41.5366 10.3583 42.4735 11.3109C43.4105 12.2634 44.1485 13.393 44.6445 14.6337C45.1405 15.8744 45.3846 17.2014 45.3625 18.5374H50.5792C50.5778 14.4852 48.9682 10.5992 46.1039 7.73288C43.2396 4.86653 39.3548 3.25412 35.3026 3.24976Z" fill="#C6F4E4" stroke="black"/>
<path d="M61.9598 74.3229H8.6481C7.96614 74.3236 7.29213 74.1765 6.67248 73.8917C6.05283 73.6069 5.50226 73.1912 5.05866 72.6733C4.61506 72.1553 4.28898 71.5473 4.10286 70.8913C3.91674 70.2352 3.87501 69.5466 3.98054 68.8729L11.369 21.9063C11.5439 20.7946 12.1104 19.7821 12.9664 19.0515C13.8223 18.321 14.9112 17.9205 16.0366 17.9224H54.5796C55.7049 17.9205 56.7938 18.321 57.6498 19.0515C58.5057 19.7821 59.0723 20.7946 59.2471 21.9063L66.6274 68.8729C66.7334 69.5467 66.692 70.2355 66.5061 70.8917C66.3201 71.548 65.9941 72.1561 65.5504 72.6742C65.1067 73.1923 64.5559 73.608 63.936 73.8926C63.3162 74.1772 62.6419 74.3241 61.9598 74.3229Z" fill="#C6F4E4" stroke="black"/>
<path d="M35.2339 3.19214C31.178 3.19214 27.2881 4.80337 24.4201 7.67139C21.5521 10.5394 19.9408 14.4293 19.9408 18.4852H25.1575C25.1354 17.1493 25.3795 15.8223 25.8755 14.5816C26.3715 13.3409 27.1095 12.2113 28.0465 11.2587C28.9835 10.3061 30.1007 9.5496 31.333 9.03318C32.5654 8.51676 33.8882 8.2508 35.2243 8.2508C36.5605 8.2508 37.8833 8.51676 39.1156 9.03318C40.348 9.5496 41.4652 10.3061 42.4022 11.2587C43.3391 12.2113 44.0771 13.3409 44.5731 14.5816C45.0691 15.8223 45.3132 17.1493 45.2911 18.4852H50.5078C50.5086 14.4324 48.9002 10.545 46.0362 7.67737C43.1722 4.80975 39.2868 3.19651 35.2339 3.19214Z" fill="#C2F4E2" stroke="black"/>
<path d="M61.8884 74.2735H8.57672C7.89462 74.2747 7.22038 74.1279 6.60051 73.8432C5.98063 73.5586 5.42985 73.1429 4.98616 72.6249C4.54247 72.1068 4.21641 71.4986 4.03048 70.8424C3.84455 70.1861 3.80316 69.4973 3.90917 68.8235L11.2976 21.8486C11.4725 20.737 12.0391 19.7245 12.895 18.9939C13.7509 18.2634 14.8399 17.8629 15.9652 17.8648H54.5082C55.6332 17.864 56.7216 18.2649 57.5773 18.9952C58.433 19.7256 58.9998 20.7375 59.1758 21.8486L66.556 68.8152C66.6628 69.4896 66.6221 70.1791 66.4366 70.8362C66.2511 71.4933 65.9252 72.1023 65.4815 72.6212C65.0377 73.1401 64.4867 73.5566 63.8664 73.8419C63.246 74.1271 62.5712 74.2744 61.8884 74.2735Z" fill="#C2F4E2" stroke="black"/>
<path d="M35.1625 3.13453C33.1533 3.13308 31.1635 3.52759 29.3068 4.29549C27.45 5.0634 25.7628 6.18965 24.3416 7.60989C22.9203 9.03013 21.7929 10.7165 21.0236 12.5727C20.2544 14.4288 19.8585 16.4184 19.8585 18.4276H25.0751C25.0751 17.1058 25.3355 15.797 25.8413 14.5758C26.3472 13.3546 27.0886 12.245 28.0232 11.3103C28.9579 10.3756 30.0675 9.63421 31.2887 9.12837C32.5099 8.62254 33.8188 8.36219 35.1406 8.36219C36.4624 8.36219 37.7713 8.62254 38.9925 9.12837C40.2137 9.63421 41.3233 10.3756 42.2579 11.3103C43.1926 12.245 43.934 13.3546 44.4398 14.5758C44.9457 15.797 45.206 17.1058 45.206 18.4276H50.4227C50.4227 14.3774 48.816 10.4925 45.9551 7.62541C43.0942 4.75834 39.2128 3.14325 35.1625 3.13453Z" fill="#BFF3E0" stroke="black"/>
<path d="M61.8198 74.2076H8.50533C7.82322 74.2087 7.14899 74.0619 6.52911 73.7773C5.90923 73.4926 5.35846 73.077 4.91476 72.5589C4.47107 72.0408 4.14502 71.4327 3.95908 70.7764C3.77315 70.1201 3.73176 69.4313 3.83777 68.7575L11.2262 21.7909C11.4011 20.6793 11.9677 19.6668 12.8236 18.9362C13.6796 18.2056 14.7685 17.8051 15.8938 17.807H54.4533C55.5786 17.8051 56.6675 18.2056 57.5235 18.9362C58.3794 19.6668 58.946 20.6793 59.1208 21.7909L66.4791 68.7575C66.585 69.4306 66.5438 70.1187 66.3584 70.7744C66.1729 71.4301 65.8476 72.0378 65.4048 72.5557C64.962 73.0737 64.4123 73.4895 63.7934 73.7747C63.1745 74.0598 62.5012 74.2075 61.8198 74.2076Z" fill="#BFF3E0" stroke="black"/>
<path d="M35.0912 3.07678C33.083 3.07678 31.0945 3.47237 29.2392 4.24095C27.3839 5.00954 25.6982 6.13606 24.2783 7.5562C22.8584 8.97633 21.7322 10.6622 20.9639 12.5177C20.1957 14.3731 19.8005 16.3617 19.8008 18.3699H25.0175C24.9954 17.0339 25.2395 15.7069 25.7355 14.4662C26.2315 13.2255 26.9695 12.096 27.9065 11.1434C28.8435 10.1908 29.9607 9.43424 31.193 8.91782C32.4253 8.4014 33.7481 8.13544 35.0843 8.13544C36.4205 8.13544 37.7433 8.4014 38.9756 8.91782C40.2079 9.43424 41.3252 10.1908 42.2621 11.1434C43.1991 12.096 43.9371 13.2255 44.4331 14.4662C44.9291 15.7069 45.1732 17.0339 45.1511 18.3699H50.3678C50.3678 14.3168 48.7588 10.4294 45.8944 7.56185C43.0299 4.69431 39.1443 3.08115 35.0912 3.07678Z" fill="#BBF2DF" stroke="black"/>
<path d="M61.7484 74.1499H8.43666C7.7547 74.1506 7.08069 74.0035 6.46104 73.7187C5.84139 73.4339 5.29082 73.0183 4.84722 72.5003C4.40362 71.9823 4.07754 71.3744 3.89142 70.7183C3.7053 70.0622 3.66357 69.3736 3.7691 68.6999L11.1576 21.7333C11.3325 20.6216 11.899 19.6091 12.7549 18.8786C13.6109 18.148 14.6998 17.7475 15.8251 17.7494H54.3682C55.4935 17.7475 56.5824 18.148 57.4383 18.8786C58.2943 19.6091 58.8608 20.6216 59.0357 21.7333L66.4077 68.6999C66.5136 69.373 66.4724 70.0611 66.2869 70.7168C66.1015 71.3725 65.7762 71.9802 65.3334 72.4981C64.8906 73.0161 64.3409 73.4319 63.722 73.7171C63.1031 74.0022 62.4298 74.1499 61.7484 74.1499Z" fill="#BBF2DF" stroke="black"/>
<path d="M35.0225 3.01917C30.9666 3.01917 27.0767 4.6304 24.2087 7.49841C21.3407 10.3664 19.7294 14.2563 19.7294 18.3123H24.9461C24.9897 15.6712 26.0695 13.153 27.9527 11.3007C29.8358 9.4484 32.3715 8.41034 35.0129 8.41034C37.6544 8.41034 40.19 9.4484 42.0732 11.3007C43.9563 13.153 45.0361 15.6712 45.0798 18.3123H50.2964C50.2972 14.2594 48.6888 10.372 45.8248 7.5044C42.9608 4.63678 39.0754 3.02353 35.0225 3.01917Z" fill="#B8F2DD" stroke="black"/>
<path d="M61.677 74.0922H8.36528C7.68318 74.0933 7.00894 73.9465 6.38906 73.6619C5.76919 73.3773 5.21841 72.9616 4.77472 72.4435C4.33103 71.9254 4.00497 71.3173 3.81904 70.661C3.63311 70.0047 3.59172 69.316 3.69773 68.6421L11.0862 21.6755C11.2607 20.5662 11.8253 19.5556 12.6784 18.8253C13.5314 18.095 14.6171 17.693 15.74 17.6917H54.2968C55.4218 17.6909 56.5101 18.0918 57.3658 18.8221C58.2215 19.5525 58.7884 20.5644 58.9643 21.6755L66.3446 68.6421C66.4501 69.3159 66.4084 70.0045 66.2222 70.6606C66.0361 71.3166 65.71 71.9246 65.2664 72.4425C64.8228 72.9605 64.2723 73.3762 63.6526 73.661C63.033 73.9458 62.359 74.0929 61.677 74.0922Z" fill="#B8F2DD" stroke="black"/>
<path d="M34.9594 2.96155C32.9497 2.96047 30.9595 3.35551 29.1025 4.12409C27.2456 4.89267 25.5584 6.01972 24.1373 7.4408C22.7162 8.86187 21.5892 10.5491 20.8206 12.406C20.052 14.263 19.657 16.2532 19.658 18.2629H24.8747C24.8747 15.5934 25.9352 13.0332 27.8228 11.1455C29.7105 9.25791 32.2706 8.19745 34.9402 8.19745C37.6097 8.19745 40.1699 9.25791 42.0575 11.1455C43.9451 13.0332 45.0056 15.5934 45.0056 18.2629H50.2223C50.2245 14.2107 48.6184 10.3233 45.7566 7.45438C42.8949 4.58545 39.0116 2.96955 34.9594 2.96155Z" fill="#B4F1DB" stroke="black"/>
<path d="M61.6084 74.0346H8.2939C7.6118 74.0358 6.93756 73.889 6.31768 73.6043C5.6978 73.3197 5.14703 72.904 4.70334 72.386C4.25965 71.8679 3.93359 71.2597 3.74766 70.6035C3.56173 69.9472 3.52034 69.2584 3.62635 68.5846L11.0066 21.6345C11.1809 20.5223 11.7472 19.5092 12.6032 18.7781C13.4592 18.0469 14.5484 17.6461 15.6741 17.6478H54.2281C55.3539 17.6461 56.4431 18.0469 57.2991 18.7781C58.1551 19.5092 58.7214 20.5223 58.8957 21.6345L66.2595 68.5846C66.3652 69.257 66.3242 69.9444 66.1393 70.5995C65.9543 71.2546 65.6297 71.8619 65.1878 72.3797C64.7459 72.8975 64.1972 73.3135 63.5793 73.5992C62.9615 73.8849 62.2891 74.0334 61.6084 74.0346Z" fill="#B4F1DB" stroke="black"/>
<path d="M34.8798 2.90662C32.8713 2.9059 30.8825 3.30086 29.0267 4.06895C27.171 4.83704 25.4847 5.96321 24.0643 7.38312C22.6439 8.80303 21.5171 10.4889 20.7483 12.3443C19.9796 14.1998 19.5839 16.1886 19.5839 18.197H24.8006C24.8442 15.5559 25.924 13.0377 27.8071 11.1854C29.6903 9.33311 32.226 8.29505 34.8674 8.29505C37.5089 8.29505 40.0445 9.33311 41.9277 11.1854C43.8108 13.0377 44.8906 15.5559 44.9342 18.197H50.1509C50.1509 14.1451 48.5426 10.2588 45.6793 7.39185C42.8159 4.5249 38.9317 2.91171 34.8798 2.90662Z" fill="#B0F0D9" stroke="black"/>
<path d="M61.537 73.9771H8.22526C7.54343 73.9782 6.86947 73.8314 6.24981 73.5469C5.63016 73.2625 5.07954 72.847 4.6359 72.3293C4.19225 71.8115 3.86613 71.2037 3.67999 70.5478C3.49386 69.8919 3.45214 69.2034 3.55771 68.5298L10.9462 21.5577C11.1205 20.4455 11.6868 19.4324 12.5428 18.7013C13.3988 17.9702 14.488 17.5693 15.6137 17.5711H54.1568C55.2825 17.5693 56.3717 17.9702 57.2277 18.7013C58.0837 19.4324 58.65 20.4455 58.8243 21.5577L66.2045 68.5243C66.3115 69.1984 66.2708 69.8876 66.0852 70.5445C65.8997 71.2013 65.5737 71.81 65.1299 72.3285C64.686 72.847 64.1349 73.2629 63.5146 73.5476C62.8942 73.8322 62.2195 73.9788 61.537 73.9771Z" fill="#B0F0D9" stroke="black"/>
<path d="M34.8111 2.84888C32.8029 2.84852 30.8143 3.24375 28.9589 4.012C27.1035 4.78025 25.4175 5.90647 23.9974 7.32635C22.5773 8.74623 21.4507 10.4319 20.6822 12.2872C19.9136 14.1425 19.518 16.1311 19.518 18.1392H24.7347C24.7783 15.4981 25.8581 12.98 27.7412 11.1277C29.6244 9.27537 32.16 8.23731 34.8015 8.23731C37.4429 8.23731 39.9786 9.27537 41.8617 11.1277C43.7449 12.98 44.8247 15.4981 44.8683 18.1392H50.085C50.085 14.0868 48.4763 10.2002 45.6124 7.33314C42.7484 4.46611 38.8635 2.85324 34.8111 2.84888Z" fill="#ADF0D8" stroke="black"/>
<path d="M61.4656 73.9194H8.15389C7.47192 73.9209 6.79772 73.7745 6.17784 73.4901C5.55795 73.2058 5.00714 72.7904 4.5634 72.2725C4.11966 71.7547 3.79356 71.1467 3.60761 70.4905C3.42166 69.8344 3.38028 69.1457 3.48633 68.472L10.8748 21.5054C11.0491 20.3933 11.6154 19.3801 12.4714 18.649C13.3274 17.9179 14.4166 17.517 15.5424 17.5188H54.0854C55.2108 17.5181 56.2995 17.9194 57.1552 18.6503C58.011 19.3813 58.5776 20.3938 58.7529 21.5054L66.1332 68.472C66.2387 69.1457 66.197 69.8341 66.0109 70.4901C65.8248 71.146 65.4986 71.7538 65.055 72.2716C64.6113 72.7893 64.0607 73.2047 63.4411 73.4892C62.8214 73.7737 62.1474 73.9204 61.4656 73.9194Z" fill="#ADF0D8" stroke="black"/>
<path d="M34.7397 2.79138C32.7315 2.79102 30.743 3.18625 28.8875 3.9545C27.0321 4.72275 25.3462 5.84898 23.926 7.26885C22.5059 8.68873 21.3794 10.3745 20.6108 12.2297C19.8422 14.085 19.4466 16.0736 19.4466 18.0817H24.6633C24.6633 15.4122 25.7238 12.852 27.6114 10.9644C29.499 9.07676 32.0592 8.0163 34.7288 8.0163C37.3983 8.0163 39.9585 9.07676 41.8461 10.9644C43.7337 12.852 44.7942 15.4122 44.7942 18.0817H50.0109C50.0109 14.0298 48.4026 10.1436 45.5392 7.27662C42.6759 4.40967 38.7917 2.79648 34.7397 2.79138Z" fill="#A9EFD6" stroke="black"/>
<path d="M61.397 73.8617H8.08249C7.40052 73.8632 6.72633 73.7168 6.10644 73.4325C5.48656 73.1482 4.93574 72.7327 4.492 72.2148C4.04826 71.697 3.72216 71.089 3.53621 70.4329C3.35026 69.7767 3.30889 69.0881 3.41494 68.4144L10.7979 21.4478C10.9728 20.3361 11.5394 19.3236 12.3953 18.5931C13.2512 17.8625 14.3401 17.462 15.4655 17.4639H54.0167C55.1422 17.4614 56.2314 17.8617 57.0875 18.5924C57.9435 19.3231 58.5099 20.3359 58.6843 21.4478L66.0645 68.4144C66.1706 69.0881 66.1292 69.7767 65.9432 70.4329C65.7573 71.089 65.4312 71.697 64.9875 72.2148C64.5437 72.7327 63.9929 73.1482 63.373 73.4325C62.7531 73.7168 62.0789 73.8632 61.397 73.8617Z" fill="#A9EFD6" stroke="black"/>
<path d="M34.6683 2.73364C30.6131 2.73364 26.7239 4.34459 23.8564 7.21209C20.9889 10.0796 19.378 13.9688 19.378 18.024H24.5947C24.6383 15.3829 25.7181 12.8647 27.6012 11.0124C29.4844 9.16013 32.02 8.12207 34.6615 8.12207C37.3029 8.12207 39.8386 9.16013 41.7217 11.0124C43.6049 12.8647 44.6847 15.3829 44.7283 18.024H49.945C49.945 13.9711 48.3359 10.084 45.4714 7.21694C42.6069 4.34983 38.7212 2.73728 34.6683 2.73364Z" fill="#A6EED4" stroke="black"/>
<path d="M61.3173 73.8039H8.01385C7.33202 73.805 6.65806 73.6583 6.0384 73.3738C5.41875 73.0893 4.86813 72.6739 4.42448 72.1561C3.98084 71.6384 3.65472 71.0306 3.46858 70.3747C3.28245 69.7187 3.24073 69.0302 3.3463 68.3566L10.7348 21.39C10.9091 20.2781 11.4755 19.2653 12.3316 18.5347C13.1876 17.804 14.2768 17.4037 15.4023 17.4061H53.9454C55.0708 17.4037 56.16 17.804 57.0161 18.5347C57.8722 19.2653 58.4385 20.2781 58.6129 21.39L65.9849 68.3566C66.091 69.0303 66.0496 69.719 65.8636 70.3751C65.6777 71.0313 65.3516 71.6392 64.9078 72.1571C64.4641 72.675 63.9133 73.0904 63.2934 73.3747C62.6735 73.659 61.9993 73.8055 61.3173 73.8039Z" fill="#A6EED4" stroke="black"/>
<path d="M34.5997 2.6759C30.5444 2.6759 26.6553 4.28685 23.7878 7.15435C20.9203 10.0218 19.3093 13.911 19.3093 17.9663H24.526C24.5696 15.3252 25.6494 12.807 27.5326 10.9547C29.4157 9.10239 31.9514 8.06433 34.5928 8.06433C37.2343 8.06433 39.7699 9.10239 41.6531 10.9547C43.5362 12.807 44.616 15.3252 44.6596 17.9663H49.8763C49.8763 13.9134 48.2673 10.0263 45.4027 7.1592C42.5382 4.29209 38.6526 2.67954 34.5997 2.6759Z" fill="#A2EED3" stroke="black"/>
<path d="M61.2569 73.7491H7.94248C7.26037 73.7502 6.58614 73.6034 5.96626 73.3188C5.34638 73.0341 4.79561 72.6185 4.35191 72.1004C3.90822 71.5823 3.58217 70.9742 3.39623 70.3179C3.2103 69.6616 3.16891 68.9728 3.27492 68.299L10.6634 21.3324C10.8377 20.2205 11.4041 19.2077 12.2602 18.477C13.1163 17.7464 14.2055 17.3461 15.3309 17.3485H53.874C54.9991 17.3472 56.0878 17.7479 56.9436 18.4784C57.7994 19.2088 58.3661 20.221 58.5415 21.3324L65.9218 68.299C66.0272 68.9725 65.9856 69.6609 65.7996 70.3168C65.6137 70.9727 65.2878 71.5805 64.8445 72.0984C64.4012 72.6163 63.851 73.032 63.2317 73.317C62.6124 73.6019 61.9387 73.7494 61.2569 73.7491Z" fill="#A2EED3" stroke="black"/>
<path d="M34.5283 2.61279C30.4728 2.61279 26.5834 4.22365 23.7154 7.09107C20.8475 9.95849 19.2359 13.8476 19.2352 17.9032H24.4519C24.4519 15.2336 25.5123 12.6734 27.4 10.7858C29.2876 8.89817 31.8478 7.83771 34.5173 7.83771C37.1868 7.83771 39.747 8.89817 41.6347 10.7858C43.5223 12.6734 44.5828 15.2336 44.5828 17.9032H49.7994C49.7987 13.8515 48.1902 9.96562 45.327 7.09883C42.4638 4.23204 38.58 2.61861 34.5283 2.61279Z" fill="#9FEDD1" stroke="black"/>
<path d="M61.1855 73.6914H7.87107C7.18885 73.6915 6.51472 73.5437 5.89517 73.258C5.27563 72.9724 4.72541 72.5558 4.28248 72.0369C3.83955 71.518 3.51445 70.9092 3.3296 70.2525C3.14474 69.5958 3.10454 68.9068 3.21175 68.2331L10.592 21.283C10.7674 20.1716 11.3341 19.1594 12.1899 18.4289C13.0457 17.6984 14.1344 17.2978 15.2595 17.2991H53.8053C54.9306 17.2972 56.0196 17.6977 56.8755 18.4283C57.7314 19.1588 58.298 20.1713 58.4729 21.283L65.8449 68.2331C65.9521 68.9068 65.9119 69.5958 65.727 70.2525C65.5422 70.9092 65.2171 71.518 64.7741 72.0369C64.3312 72.5558 63.781 72.9724 63.1614 73.258C62.5419 73.5437 61.8678 73.6915 61.1855 73.6914Z" fill="#9FEDD1" stroke="black"/>
<path d="M34.4569 2.56067C32.4487 2.56067 30.4602 2.95626 28.6049 3.72484C26.7496 4.49343 25.0639 5.61995 23.644 7.04008C22.2242 8.46022 21.0979 10.1461 20.3297 12.0016C19.5614 13.857 19.1662 15.8456 19.1666 17.8538H24.3832C24.3612 16.5178 24.6053 15.1908 25.1013 13.9501C25.5973 12.7094 26.3353 11.5798 27.2722 10.6273C28.2092 9.67468 29.3264 8.91813 30.5588 8.40171C31.7911 7.88529 33.1139 7.61933 34.4501 7.61933C35.7862 7.61933 37.109 7.88529 38.3414 8.40171C39.5737 8.91813 40.6909 9.67468 41.6279 10.6273C42.5649 11.5798 43.3029 12.7094 43.7989 13.9501C44.2949 15.1908 44.5389 16.5178 44.5169 17.8538H49.7336C49.7336 13.8006 48.1246 9.91328 45.2601 7.04574C42.3957 4.1782 38.5101 2.56503 34.4569 2.56067Z" fill="#9BECCF" stroke="black"/>
<path d="M61.1142 73.6337H7.80245C7.1205 73.6344 6.44649 73.4873 5.82684 73.2025C5.20719 72.9177 4.65661 72.502 4.21302 71.9841C3.76942 71.4661 3.44334 70.8582 3.25722 70.2021C3.0711 69.546 3.02937 68.8574 3.1349 68.1837L10.5234 21.2171C10.6983 20.1054 11.2648 19.0929 12.1207 18.3623C12.9767 17.6318 14.0656 17.2313 15.1909 17.2332H53.7339C54.8593 17.2313 55.9482 17.6318 56.8041 18.3623C57.6601 19.0929 58.2266 20.1054 58.4015 21.2171L65.7817 68.1837C65.8877 68.8575 65.8464 69.5463 65.6604 70.2025C65.4745 70.8588 65.1484 71.4669 64.7047 71.985C64.261 72.5031 63.7103 72.9188 63.0904 73.2034C62.4705 73.488 61.7963 73.6349 61.1142 73.6337Z" fill="#9BECCF" stroke="black"/>
<path d="M34.3883 2.50293C30.3323 2.50293 26.4424 4.11416 23.5744 6.98218C20.7064 9.85019 19.0952 13.7401 19.0952 17.796H24.3119C24.2898 16.4601 24.5339 15.133 25.0299 13.8924C25.5259 12.6517 26.2639 11.5221 27.2009 10.5695C28.1378 9.61694 29.255 8.86039 30.4874 8.34397C31.7197 7.82755 33.0425 7.56159 34.3787 7.56159C35.7148 7.56159 37.0377 7.82755 38.27 8.34397C39.5023 8.86039 40.6195 9.61694 41.5565 10.5695C42.4935 11.5221 43.2315 12.6517 43.7275 13.8924C44.2235 15.133 44.4676 16.4601 44.4455 17.796H49.6622C49.6629 13.7432 48.0546 9.85578 45.1905 6.98816C42.3265 4.12054 38.4412 2.5073 34.3883 2.50293Z" fill="#98ECCE" stroke="black"/>
<path d="M61.0428 73.5762H7.73103C7.04893 73.5773 6.3747 73.4305 5.75482 73.1459C5.13494 72.8613 4.58416 72.4456 4.14047 71.9275C3.69678 71.4094 3.37073 70.8013 3.18479 70.145C2.99886 69.4888 2.95747 68.8 3.06348 68.1261L10.4519 21.1596C10.6242 20.0473 11.1886 19.0333 12.043 18.3007C12.8975 17.5681 13.9857 17.1652 15.1113 17.1647H53.6625C54.7875 17.1639 55.8759 17.5648 56.7316 18.2952C57.5873 19.0255 58.1541 20.0374 58.3301 21.1486L65.7103 68.1261C65.8163 68.8 65.7749 69.4888 65.589 70.145C65.4031 70.8013 65.077 71.4094 64.6333 71.9275C64.1896 72.4456 63.6389 72.8613 63.019 73.1459C62.3991 73.4305 61.7249 73.5773 61.0428 73.5762Z" fill="#98ECCE" stroke="black"/>
<path d="M34.3169 2.44531C30.2628 2.44822 26.3758 4.06074 23.5101 6.92844C20.6445 9.79614 19.0348 13.6843 19.0348 17.7384H24.2515C24.2515 15.0689 25.3119 12.5087 27.1996 10.6211C29.0872 8.73344 31.6474 7.67298 34.3169 7.67298C36.9864 7.67298 39.5466 8.73344 41.4342 10.6211C43.3219 12.5087 44.3823 15.0689 44.3823 17.7384H49.599C49.599 13.6843 47.9893 9.79614 45.1237 6.92844C42.258 4.06074 38.371 2.44822 34.3169 2.44531Z" fill="#94EBCC" stroke="black"/>
<path d="M60.9741 73.5185H7.65965C6.97755 73.5196 6.30332 73.3728 5.68344 73.0882C5.06356 72.8035 4.51278 72.3879 4.06909 71.8698C3.6254 71.3517 3.29935 70.7436 3.11341 70.0873C2.92748 69.431 2.88609 68.7422 2.9921 68.0684L10.3806 21.1018C10.556 19.9904 11.1227 18.9782 11.9785 18.2478C12.8343 17.5173 13.923 17.1166 15.0481 17.1179H53.5939C54.7192 17.116 55.8081 17.5165 56.6641 18.2471C57.52 18.9777 58.0866 19.9902 58.2615 21.1018L65.6334 68.0684C65.7393 68.7415 65.6982 69.4296 65.5127 70.0853C65.3272 70.741 65.0019 71.3487 64.5591 71.8666C64.1163 72.3846 63.5666 72.8004 62.9477 73.0856C62.3288 73.3707 61.6555 73.5184 60.9741 73.5185Z" fill="#94EBCC" stroke="black"/>
<path d="M34.2455 2.3877C32.2373 2.3877 30.2488 2.78328 28.3935 3.55187C26.5382 4.32045 24.8525 5.44698 23.4326 6.86711C22.0127 8.28724 20.8865 9.97316 20.1183 11.8286C19.35 13.684 18.9548 15.6726 18.9551 17.6808H24.1718C24.1498 16.3448 24.3938 15.0178 24.8898 13.7771C25.3858 12.5364 26.1238 11.4069 27.0608 10.4543C27.9978 9.5017 29.115 8.74516 30.3473 8.22874C31.5797 7.71232 32.9025 7.44635 34.2386 7.44635C35.5748 7.44635 36.8976 7.71232 38.1299 8.22874C39.3623 8.74516 40.4795 9.5017 41.4165 10.4543C42.3534 11.4069 43.0914 12.5364 43.5874 13.7771C44.0834 15.0178 44.3275 16.3448 44.3055 17.6808H49.5221C49.5221 13.6277 47.9132 9.7403 45.0487 6.87276C42.1843 4.00522 38.2986 2.39206 34.2455 2.3877Z" fill="#90EACA" stroke="black"/>
<path d="M60.9027 73.4499H7.59102C6.90877 73.4515 6.2343 73.305 5.61419 73.0205C4.99408 72.736 4.44311 72.3203 3.99932 71.8022C3.55554 71.284 3.22951 70.6756 3.04376 70.0192C2.85801 69.3627 2.81697 68.6737 2.92346 67.9998L10.3119 21.0442C10.4868 19.9326 11.0534 18.9201 11.9093 18.1895C12.7652 17.4589 13.8542 17.0584 14.9795 17.0603H53.5225C54.6478 17.0584 55.7368 17.4589 56.5927 18.1895C57.4486 18.9201 58.0152 19.9326 58.1901 21.0442L65.5703 68.0108C65.6746 68.6838 65.6318 69.3714 65.4451 70.0263C65.2584 70.6812 64.932 71.2879 64.4885 71.8048C64.045 72.3216 63.4949 72.7362 62.8759 73.0202C62.2569 73.3042 61.5838 73.4508 60.9027 73.4499Z" fill="#90EACA" stroke="black"/>
<path d="M34.1769 2.33826C30.1209 2.33826 26.231 3.94949 23.363 6.8175C20.495 9.68552 18.8838 13.5754 18.8838 17.6314H24.1005C24.1441 14.9903 25.2239 12.4721 27.107 10.6198C28.9902 8.76749 31.5258 7.72943 34.1673 7.72943C36.8087 7.72943 39.3444 8.76749 41.2275 10.6198C43.1107 12.4721 44.1905 14.9903 44.2341 17.6314H49.4508C49.4515 13.5785 47.8431 9.69111 44.9791 6.82349C42.1151 3.95587 38.2298 2.34262 34.1769 2.33826Z" fill="#8DEAC8" stroke="black"/>
<path d="M60.8341 73.4031H7.51965C6.83878 73.4029 6.16602 73.2554 5.5476 72.9705C4.92917 72.6857 4.37973 72.2704 3.93704 71.7531C3.49434 71.2358 3.16889 70.6288 2.98303 69.9738C2.79717 69.3187 2.75531 68.6313 2.86033 67.9585L10.2488 20.9865C10.4237 19.8748 10.9902 18.8623 11.8462 18.1317C12.7021 17.4012 13.791 17.0007 14.9164 17.0026H53.4512C54.5762 17.0018 55.6645 17.4027 56.5202 18.1331C57.3759 18.8634 57.9428 19.8753 58.1187 20.9865L65.4934 67.9585C65.5985 68.6313 65.5566 69.3187 65.3708 69.9738C65.1849 70.6288 64.8594 71.2358 64.4167 71.7531C63.974 72.2704 63.4246 72.6857 62.8062 72.9705C62.1878 73.2554 61.515 73.4029 60.8341 73.4031Z" fill="#8DEAC8" stroke="black"/>
<path d="M34.1055 2.27234C32.0973 2.27234 30.1088 2.66793 28.2535 3.43651C26.3982 4.2051 24.7125 5.33162 23.2926 6.75175C21.8727 8.17189 20.7465 9.85781 19.9782 11.7132C19.21 13.5687 18.8148 15.5573 18.8151 17.5654H24.0318C24.0318 14.8959 25.0923 12.3357 26.9799 10.4481C28.8675 8.56046 31.4277 7.5 34.0972 7.5C36.7668 7.5 39.327 8.56046 41.2146 10.4481C43.1022 12.3357 44.1627 14.8959 44.1627 17.5654H49.3794C49.3794 13.5128 47.7708 9.62584 44.9069 6.75838C42.0431 3.89091 38.1581 2.27743 34.1055 2.27234Z" fill="#89E9C7" stroke="black"/>
<path d="M60.7682 73.3455H7.44825C6.76627 73.347 6.09208 73.2006 5.47219 72.9163C4.85231 72.632 4.30149 72.2165 3.85775 71.6987C3.41401 71.1808 3.08792 70.5728 2.90197 69.9167C2.71602 69.2605 2.67464 68.5719 2.78069 67.8982L10.1692 20.9316C10.344 19.8197 10.9104 18.8069 11.7663 18.0758C12.6222 17.3448 13.7111 16.9437 14.8367 16.945H53.3825C54.5082 16.9432 55.5975 17.3441 56.4535 18.0752C57.3095 18.8063 57.8758 19.8194 58.05 20.9316L65.4358 67.8982C65.5418 68.5719 65.5004 69.2605 65.3145 69.9167C65.1285 70.5728 64.8024 71.1808 64.3587 71.6987C63.915 72.2165 63.3642 72.632 62.7443 72.9163C62.1244 73.2006 61.4502 73.347 60.7682 73.3455Z" fill="#89E9C7" stroke="black"/>
<path d="M34.0341 2.21753C29.9788 2.21753 26.0897 3.82847 23.2222 6.69597C20.3547 9.56347 18.7437 13.4526 18.7437 17.5079H23.9769C24.0205 14.8668 25.1003 12.3486 26.9834 10.4963C28.8666 8.64402 31.4022 7.60596 34.0437 7.60596C36.6852 7.60596 39.2208 8.64402 41.104 10.4963C42.9871 12.3486 44.0669 14.8668 44.1105 17.5079H49.3272C49.3272 15.4997 48.9316 13.5112 48.163 11.6559C47.3944 9.8006 46.2679 8.11488 44.8478 6.695C43.4277 5.27512 41.7417 4.1489 39.8863 3.38065C38.0309 2.6124 36.0423 2.21717 34.0341 2.21753Z" fill="#86E8C5" stroke="black"/>
<path d="M60.6913 73.2878H7.3796C6.69762 73.2894 6.02343 73.1429 5.40355 72.8586C4.78366 72.5743 4.23284 72.1589 3.7891 71.641C3.34536 71.1231 3.01927 70.5151 2.83332 69.859C2.64737 69.2029 2.60599 68.5142 2.71204 67.8405L10.1005 20.8739C10.2752 19.7637 10.8405 18.7523 11.6948 18.0219C12.549 17.2915 13.6359 16.8901 14.7598 16.89H53.3111C54.4368 16.8882 55.5261 17.2891 56.3821 18.0202C57.2381 18.7514 57.8043 19.7645 57.9786 20.8767L65.3589 67.8433C65.4645 68.5167 65.4228 69.2051 65.2366 69.8609C65.0505 70.5167 64.7243 71.1243 64.2806 71.6419C63.8369 72.1594 63.2863 72.5746 62.6666 72.8588C62.0469 73.1429 61.373 73.2893 60.6913 73.2878Z" fill="#86E8C5" stroke="black"/>
<path d="M33.9655 2.15979C29.9116 2.15906 26.0234 3.76818 23.1556 6.63338C20.2879 9.49858 18.6753 13.3853 18.6723 17.4392H23.889C23.9504 14.8104 25.0379 12.3099 26.9188 10.4724C28.7998 8.63483 31.3249 7.60609 33.9545 7.60609C36.584 7.60609 39.1092 8.63483 40.9901 10.4724C42.8711 12.3099 43.9585 14.8104 44.0199 17.4392H49.2366C49.2337 13.3891 47.6241 9.50571 44.7611 6.64114C41.898 3.77656 38.0155 2.16488 33.9655 2.15979Z" fill="#82E8C3" stroke="black"/>
<path d="M60.6227 73.2301H7.30823C6.62626 73.2316 5.95206 73.0852 5.33218 72.8009C4.7123 72.5166 4.16148 72.1011 3.71774 71.5833C3.274 71.0654 2.9479 70.4574 2.76195 69.8013C2.576 69.1451 2.53463 68.4565 2.64068 67.7828L10.0291 20.8162C10.2035 19.7043 10.7699 18.6915 11.626 17.9608C12.482 17.2301 13.5712 16.8298 14.6967 16.8323H53.2397C54.3649 16.831 55.4535 17.2317 56.3093 17.9621C57.1652 18.6926 57.7319 19.7048 57.9073 20.8162L65.2875 67.7828C65.393 68.4562 65.3514 69.1444 65.1654 69.8002C64.9794 70.4559 64.6536 71.0635 64.2102 71.5812C63.7669 72.099 63.2166 72.5144 62.5973 72.7991C61.978 73.0837 61.3043 73.2308 60.6227 73.2301Z" fill="#82E8C3" stroke="black"/>
<path d="M33.8941 2.10205C29.8388 2.10205 25.9497 3.713 23.0822 6.58049C20.2147 9.44799 18.6037 13.3372 18.6037 17.3924H23.8204C23.8204 14.7229 24.8809 12.1627 26.7685 10.2751C28.6561 8.38743 31.2163 7.32697 33.8858 7.32697C36.5554 7.32697 39.1155 8.38743 41.0032 10.2751C42.8908 12.1627 43.9513 14.7229 43.9513 17.3924H49.168C49.168 13.34 47.5593 9.45334 44.6953 6.58631C41.8314 3.71929 37.9465 2.10642 33.8941 2.10205Z" fill="#7FE7C2" stroke="black"/>
<path d="M60.5513 73.1753H7.2286C6.54662 73.1769 5.87243 73.0304 5.25254 72.7461C4.63266 72.4618 4.08184 72.0464 3.6381 71.5285C3.19436 71.0106 2.86827 70.4027 2.68232 69.7465C2.49637 69.0904 2.45499 68.4017 2.56104 67.728L9.95774 20.7587C10.1326 19.647 10.6992 18.6345 11.5551 17.904C12.4111 17.1734 13.5 16.7729 14.6253 16.7748H53.1711C54.2965 16.7723 55.3858 17.1726 56.2418 17.9033C57.0979 18.634 57.6643 19.6468 57.8386 20.7587L65.2189 67.7253C65.3254 68.3992 65.2843 69.0881 65.0986 69.7446C64.9128 70.4011 64.5868 71.0094 64.143 71.5276C63.6992 72.0458 63.1482 72.4615 62.5281 72.746C61.908 73.0304 61.2336 73.1769 60.5513 73.1753Z" fill="#7FE7C2" stroke="black"/>
<path d="M33.8227 2.04456C29.7674 2.04456 25.8783 3.6555 23.0108 6.523C20.1433 9.3905 18.5323 13.2797 18.5323 17.3349H23.749C23.7926 14.6938 24.8724 12.1757 26.7556 10.3233C28.6387 8.47104 31.1744 7.43298 33.8158 7.43298C36.4573 7.43298 38.9929 8.47104 40.8761 10.3233C42.7592 12.1757 43.839 14.6938 43.8827 17.3349H49.0993C49.0993 13.282 47.4903 9.39496 44.6257 6.52785C41.7612 3.66075 37.8756 2.04819 33.8227 2.04456Z" fill="#7BE6C0" stroke="black"/>
<path d="M60.4936 73.1149H7.16819C6.48621 73.1164 5.81202 72.97 5.19214 72.6856C4.57225 72.4013 4.02143 71.9859 3.57769 71.468C3.13395 70.9502 2.80786 70.3422 2.62191 69.686C2.43596 69.0299 2.39458 68.3412 2.50063 67.6675L9.8891 20.7009C10.0635 19.5891 10.6299 18.5762 11.4859 17.8456C12.342 17.1149 13.4312 16.7146 14.5567 16.7171H53.0997C54.2252 16.7146 55.3144 17.1149 56.1704 17.8456C57.0265 18.5762 57.5929 19.5891 57.7672 20.7009L65.1475 67.6675C65.2533 68.3401 65.2123 69.0276 65.0271 69.6827C64.842 70.3379 64.5171 70.9452 64.0749 71.4628C63.6326 71.9804 63.0835 72.3961 62.4653 72.6813C61.8471 72.9665 61.1745 73.1144 60.4936 73.1149Z" fill="#7BE6C0" stroke="black"/>
<path d="M33.754 1.98682C31.7459 1.98646 29.7573 2.38169 27.9018 3.14994C26.0464 3.91819 24.3605 5.04441 22.9404 6.46429C21.5202 7.88417 20.3937 9.56989 19.6251 11.4252C18.8565 13.2805 18.4609 15.269 18.4609 17.2772H23.6776C23.7212 14.6361 24.801 12.1179 26.6842 10.2656C28.5673 8.41331 31.103 7.37525 33.7444 7.37525C36.3859 7.37525 38.9215 8.41331 40.8047 10.2656C42.6878 12.1179 43.7676 14.6361 43.8113 17.2772H49.0279C49.0279 13.2248 47.4193 9.33811 44.5553 6.47108C41.6914 3.60405 37.8064 1.99118 33.754 1.98682Z" fill="#77E6BE" stroke="black"/>
<path d="M60.4113 73.0599H7.09682C6.41472 73.061 5.74048 72.9142 5.1206 72.6296C4.50072 72.3449 3.94995 71.9292 3.50626 71.4112C3.06256 70.8931 2.73651 70.285 2.55058 69.6287C2.36464 68.9724 2.32325 68.2836 2.42926 67.6098L9.81773 20.6432C9.99209 19.5313 10.5585 18.5185 11.4145 17.7878C12.2706 17.0572 13.3598 16.6569 14.4853 16.6593H53.0283C54.1535 16.658 55.2421 17.0587 56.0979 17.7891C56.9537 18.5196 57.5204 19.5318 57.6959 20.6432L65.0761 67.6098C65.1816 68.2833 65.1399 68.9717 64.954 69.6276C64.768 70.2834 64.4422 70.8912 63.9989 71.4092C63.5556 71.9271 63.0053 72.3428 62.386 72.6278C61.7667 72.9127 61.093 73.0601 60.4113 73.0599Z" fill="#77E6BE" stroke="black"/>
<path d="M33.6827 1.92908C31.6745 1.92908 29.6859 2.32467 27.8306 3.09325C25.9754 3.86183 24.2896 4.98836 22.8698 6.40849C21.4499 7.82862 20.3237 9.51455 19.5554 11.37C18.7872 13.2254 18.3919 15.214 18.3923 17.2222H23.609C23.609 14.5527 24.6694 11.9925 26.5571 10.1048C28.4447 8.2172 31.0049 7.15674 33.6744 7.15674C36.3439 7.15674 38.9041 8.2172 40.7918 10.1048C42.6794 11.9925 43.7399 14.5527 43.7399 17.2222H48.9565C48.9565 13.1695 47.3479 9.28258 44.4841 6.41511C41.6202 3.54765 37.7353 1.93417 33.6827 1.92908Z" fill="#74E5BC" stroke="black"/>
<path d="M60.3399 73.0023H7.02544C6.34334 73.0034 5.6691 72.8566 5.04922 72.572C4.42934 72.2874 3.87857 71.8717 3.43488 71.3536C2.99118 70.8355 2.66513 70.2274 2.4792 69.5711C2.29326 68.9149 2.25187 68.2261 2.35788 67.5522L9.74635 20.5857C9.9245 19.4782 10.4913 18.4703 11.3451 17.7428C12.1989 17.0152 13.2839 16.6156 14.4057 16.6155H52.9597C54.085 16.6136 55.1739 17.0141 56.0299 17.7447C56.8858 18.4752 57.4523 19.4877 57.6272 20.5994L65.0075 67.566C65.1113 68.2388 65.0682 68.9261 64.8813 69.5806C64.6944 70.2352 64.368 70.8416 63.9245 71.3581C63.481 71.8746 62.931 72.289 62.3123 72.5728C61.6935 72.8566 61.0207 73.0031 60.3399 73.0023Z" fill="#74E5BC" stroke="black"/>
<path d="M33.6113 1.87158C31.6031 1.87158 29.6146 2.26717 27.7593 3.03575C25.904 3.80434 24.2183 4.93086 22.7984 6.351C21.3785 7.77113 20.2523 9.45705 19.484 11.3125C18.7158 13.1679 18.3206 15.1565 18.3209 17.1647H23.5376C23.5155 15.8287 23.7596 14.5017 24.2556 13.261C24.7516 12.0203 25.4896 10.8908 26.4266 9.93817C27.3636 8.98559 28.4808 8.22904 29.7131 7.71262C30.9455 7.1962 32.2683 6.93024 33.6044 6.93024C34.9406 6.93024 36.2634 7.1962 37.4957 7.71262C38.7281 8.22904 39.8453 8.98559 40.7822 9.93817C41.7192 10.8908 42.4572 12.0203 42.9532 13.261C43.4492 14.5017 43.6933 15.8287 43.6712 17.1647H48.8879C48.8879 13.1116 47.279 9.22419 44.4145 6.35665C41.55 3.48911 37.6644 1.87595 33.6113 1.87158Z" fill="#70E4BB" stroke="black"/>
<path d="M60.2685 72.9446H6.95404C6.27194 72.9458 5.5977 72.799 4.97782 72.5143C4.35795 72.2297 3.80717 71.814 3.36348 71.2959C2.91979 70.7779 2.59373 70.1697 2.4078 69.5134C2.22187 68.8572 2.18048 68.1684 2.28649 67.4946L9.6777 20.528C9.85259 19.4163 10.4191 18.4038 11.2751 17.6733C12.131 16.9427 13.2199 16.5422 14.3453 16.5441H52.8883C54.0136 16.5422 55.1025 16.9427 55.9585 17.6733C56.8144 18.4038 57.381 19.4163 57.5558 20.528L64.9361 67.4946C65.0421 68.1684 65.0007 68.8572 64.8148 69.5134C64.6288 70.1697 64.3028 70.7779 63.8591 71.2959C63.4154 71.814 62.8646 72.2297 62.2447 72.5143C61.6248 72.799 60.9506 72.9458 60.2685 72.9446Z" fill="#70E4BB" stroke="black"/>
<path d="M33.5426 1.81384C29.4867 1.81384 25.5968 3.42508 22.7288 6.29309C19.8608 9.1611 18.2495 13.051 18.2495 17.107H23.4662C23.4441 15.771 23.6882 14.444 24.1842 13.2033C24.6802 11.9626 25.4182 10.833 26.3552 9.88043C27.2922 8.92785 28.4094 8.1713 29.6417 7.65488C30.8741 7.13846 32.1969 6.8725 33.533 6.8725C34.8692 6.8725 36.192 7.13846 37.4243 7.65488C38.6567 8.1713 39.7739 8.92785 40.7109 9.88043C41.6478 10.833 42.3858 11.9626 42.8818 13.2033C43.3778 14.444 43.6219 15.771 43.5998 17.107H48.8165C48.8173 13.0541 47.2089 9.1667 44.3449 6.29908C41.4809 3.43146 37.5955 1.81821 33.5426 1.81384Z" fill="#6DE4B9" stroke="black"/>
<path d="M60.1999 72.9007H6.88539C6.20329 72.9019 5.52905 72.7551 4.90918 72.4704C4.2893 72.1858 3.73852 71.7701 3.29483 71.252C2.85114 70.734 2.52508 70.1258 2.33915 69.4695C2.15322 68.8133 2.11183 68.1245 2.21784 67.4507L9.6063 20.4594C9.78119 19.3477 10.3477 18.3352 11.2037 17.6046C12.0596 16.8741 13.1485 16.4736 14.2739 16.4755H52.8059C53.9309 16.4747 55.0193 16.8756 55.875 17.606C56.7307 18.3363 57.2975 19.3482 57.4735 20.4594L64.8592 67.4369C64.9673 68.1111 64.9277 68.8007 64.7433 69.4581C64.5588 70.1154 64.2339 70.7249 63.7909 71.2444C63.3478 71.764 62.7973 72.1811 62.1773 72.4671C61.5573 72.753 60.8826 72.901 60.1999 72.9007Z" fill="#6DE4B9" stroke="black"/>
<path d="M33.4712 1.7561C31.4631 1.7561 29.4745 2.15169 27.6192 2.92028C25.7639 3.68886 24.0782 4.81539 22.6583 6.23552C21.2385 7.65565 20.1123 9.34157 19.344 11.197C18.5757 13.0524 18.1805 15.041 18.1809 17.0492H23.3976C23.3976 15.7274 23.6579 14.4185 24.1637 13.1973C24.6696 11.9761 25.411 10.8665 26.3457 9.93187C27.2803 8.9972 28.3899 8.25579 29.6111 7.74995C30.8323 7.24412 32.1412 6.98377 33.463 6.98377C34.7848 6.98377 36.0937 7.24412 37.3149 7.74995C38.5361 8.25579 39.6457 8.9972 40.5803 9.93187C41.515 10.8665 42.2564 11.9761 42.7623 13.1973C43.2681 14.4185 43.5285 15.7274 43.5285 17.0492H48.7451C48.7451 12.9966 47.1365 9.1096 44.2727 6.24214C41.4088 3.37468 37.5239 1.7612 33.4712 1.7561Z" fill="#69E3B7" stroke="black"/>
<path d="M60.1285 72.8293H6.814C6.13189 72.8304 5.45766 72.6836 4.83778 72.399C4.2179 72.1143 3.66713 71.6986 3.22343 71.1806C2.77974 70.6625 2.45369 70.0544 2.26775 69.3981C2.08182 68.7418 2.04043 68.053 2.14644 67.3792L9.53491 20.4126C9.71033 19.3012 10.277 18.289 11.1328 17.5586C11.9887 16.8281 13.0773 16.4274 14.2025 16.4287H52.7482C53.8736 16.4268 54.9625 16.8273 55.8184 17.5579C56.6744 18.2885 57.2409 19.301 57.4158 20.4126L64.796 67.3792C64.902 68.053 64.8606 68.7418 64.6747 69.3981C64.4888 70.0544 64.1627 70.6625 63.719 71.1806C63.2753 71.6986 62.7246 72.1143 62.1047 72.399C61.4848 72.6836 60.8106 72.8304 60.1285 72.8293Z" fill="#69E3B7" stroke="black"/>
<path d="M33.3999 1.69849C31.3917 1.69849 29.4031 2.09407 27.5479 2.86266C25.6926 3.63124 24.0068 4.75777 22.587 6.1779C21.1671 7.59803 20.0409 9.28395 19.2726 11.1394C18.5044 12.9948 18.1091 14.9834 18.1095 16.9916H23.3262C23.3698 14.3505 24.4496 11.8323 26.3327 9.98003C28.2159 8.12772 30.7515 7.08966 33.393 7.08966C36.0345 7.08966 38.5701 8.12772 40.4533 9.98003C42.3364 11.8323 43.4162 14.3505 43.4598 16.9916H48.6765C48.6765 12.9385 47.0675 9.0511 44.2031 6.18355C41.3386 3.31601 37.453 1.70285 33.3999 1.69849Z" fill="#66E2B6" stroke="black"/>
<path d="M60.0571 72.7718H6.74537C6.06313 72.7734 5.38866 72.6269 4.76855 72.3424C4.14844 72.0579 3.59747 71.6422 3.15368 71.124C2.7099 70.6059 2.38387 69.9975 2.19812 69.341C2.01237 68.6846 1.97133 67.9956 2.07782 67.3217L9.46628 20.3551C9.64117 19.2435 10.2077 18.231 11.0637 17.5004C11.9196 16.7698 13.0085 16.3693 14.1338 16.3712H52.6769C53.8022 16.3693 54.8911 16.7698 55.747 17.5004C56.603 18.231 57.1695 19.2435 57.3444 20.3551L64.7247 67.3217C64.8307 67.9955 64.7893 68.6843 64.6033 69.3406C64.4174 69.9969 64.0914 70.605 63.6477 71.1231C63.204 71.6412 62.6532 72.0568 62.0333 72.3415C61.4134 72.6261 60.7392 72.7729 60.0571 72.7718Z" fill="#66E2B6" stroke="black"/>
<path d="M33.3312 1.64087C29.2753 1.64087 25.3854 3.2521 22.5174 6.12012C19.6494 8.98813 18.0381 12.878 18.0381 16.934H23.2548C23.2984 14.2929 24.3782 11.7747 26.2614 9.92241C28.1445 8.0701 30.6802 7.03204 33.3216 7.03204C35.9631 7.03204 38.4987 8.0701 40.3819 9.92241C42.265 11.7747 43.3448 14.2929 43.3885 16.934H48.6051C48.6059 12.8811 46.9975 8.99372 44.1335 6.1261C41.2695 3.25848 37.3841 1.64524 33.3312 1.64087Z" fill="#62E2B4" stroke="black"/>
<path d="M59.9885 72.714H6.67949C5.99739 72.7151 5.32315 72.5683 4.70327 72.2837C4.08339 71.999 3.53262 71.5834 3.08893 71.0653C2.64524 70.5472 2.31918 69.9391 2.13325 69.2828C1.94732 68.6265 1.90593 67.9377 2.01194 67.2639L9.39216 20.3138C9.56646 19.2016 10.1328 18.1885 10.9888 17.4574C11.8447 16.7263 12.934 16.3254 14.0597 16.3272H52.6055C53.7309 16.3265 54.8196 16.7278 55.6753 17.4587C56.5311 18.1896 57.0977 19.2021 57.2731 20.3138L64.6533 67.2776C64.7571 67.9502 64.7141 68.6373 64.5273 69.2916C64.3405 69.946 64.0144 70.5522 63.5712 71.0687C63.1281 71.5851 62.5784 71.9996 61.96 72.2836C61.3416 72.5676 60.669 72.7144 59.9885 72.714Z" fill="#62E2B4" stroke="black"/>
<path d="M33.2599 1.58313C31.2505 1.58313 29.2609 1.97917 27.4047 2.74861C25.5485 3.51806 23.8622 4.64581 22.4421 6.0674C21.022 7.48898 19.8961 9.17652 19.1287 11.0335C18.3612 12.8906 17.9673 14.8806 17.9695 16.89H23.1862C23.1862 14.2204 24.2466 11.6603 26.1343 9.77262C28.0219 7.88498 30.5821 6.82452 33.2516 6.82452C35.9211 6.82452 38.4813 7.88498 40.369 9.77262C42.2566 11.6603 43.3171 14.2204 43.3171 16.89H48.5337C48.5374 12.8349 46.9304 8.94445 44.0661 6.07402C41.2019 3.20359 37.3149 1.58822 33.2599 1.58313Z" fill="#5EE1B2" stroke="black"/>
<path d="M59.9171 72.6563H6.60261C5.92063 72.6578 5.24644 72.5114 4.62655 72.2271C4.00667 71.9428 3.45585 71.5273 3.01211 71.0095C2.56837 70.4916 2.24228 69.8836 2.05633 69.2275C1.87038 68.5713 1.829 67.8827 1.93505 67.209L9.32352 20.2424C9.49834 19.1305 10.0648 18.1176 10.9207 17.3866C11.7765 16.6556 12.8655 16.2545 13.9911 16.2557H52.5314C53.6571 16.254 54.7463 16.6548 55.6023 17.386C56.4583 18.1171 57.0246 19.1302 57.1989 20.2424L64.5791 67.209C64.6851 67.8822 64.6439 68.5704 64.4582 69.2262C64.2726 69.8819 63.947 70.4896 63.5039 71.0074C63.0607 71.5252 62.5106 71.9407 61.8914 72.2254C61.2722 72.51 60.5986 72.657 59.9171 72.6563Z" fill="#5EE1B2" stroke="black"/>
<path d="M33.1885 1.52832C29.1332 1.52832 25.244 3.13926 22.3765 6.00676C19.509 8.87426 17.8981 12.7634 17.8981 16.8187H23.1148C23.1584 14.1776 24.2382 11.6594 26.1213 9.80711C28.0045 7.95481 30.5401 6.91675 33.1816 6.91675C35.823 6.91675 38.3587 7.95481 40.2418 9.80711C42.125 11.6594 43.2048 14.1776 43.2484 16.8187H48.4651C48.4651 12.7658 46.856 8.87872 43.9915 6.01161C41.127 3.14451 37.2413 1.53196 33.1885 1.52832Z" fill="#5BE0B1" stroke="black"/>
<path d="M59.8457 72.5988H6.53399C5.85201 72.6003 5.17782 72.4539 4.55793 72.1696C3.93805 71.8853 3.38723 71.4698 2.94349 70.952C2.49975 70.4341 2.17366 69.8261 1.98771 69.17C1.80176 68.5138 1.76038 67.8252 1.86643 67.1515L9.2549 20.1849C9.42919 19.0727 9.99549 18.0596 10.8515 17.3285C11.7075 16.5973 12.7967 16.1965 13.9225 16.1982H52.4655C53.5912 16.1965 54.6805 16.5973 55.5364 17.3285C56.3924 18.0596 56.9587 19.0727 57.133 20.1849L64.5133 67.1515C64.6193 67.8252 64.5779 68.5138 64.392 69.17C64.206 69.8261 63.8799 70.4341 63.4362 70.952C62.9925 71.4698 62.4416 71.8853 61.8218 72.1696C61.2019 72.4539 60.5277 72.6003 59.8457 72.5988Z" fill="#5BE0B1" stroke="black"/>
<path d="M33.1198 1.4707C31.1116 1.47034 29.123 1.86557 27.2676 2.63382C25.4122 3.40208 23.7262 4.5283 22.3061 5.94818C20.886 7.36805 19.7594 9.05377 18.9909 10.9091C18.2223 12.7644 17.8267 14.7529 17.8267 16.7611H23.0434C23.087 14.12 24.1668 11.6018 26.0499 9.7495C27.9331 7.89719 30.4687 6.85913 33.1102 6.85913C35.7516 6.85913 38.2873 7.89719 40.1705 9.7495C42.0536 11.6018 43.1334 14.12 43.177 16.7611H48.3937C48.3937 12.7087 46.785 8.82199 43.9211 5.95497C41.0571 3.08794 37.1722 1.47507 33.1198 1.4707Z" fill="#57E0AF" stroke="black"/>
<path d="M59.7771 72.541H6.46259C5.78061 72.5426 5.10642 72.3961 4.48654 72.1118C3.86665 71.8275 3.31584 71.412 2.8721 70.8942C2.42836 70.3763 2.10226 69.7683 1.91631 69.1122C1.73036 68.456 1.68898 67.7674 1.79504 67.0937L9.1835 20.1271C9.35786 19.0152 9.92426 18.0024 10.7803 17.2717C11.6364 16.541 12.7256 16.1408 13.8511 16.1432H52.3941C53.5193 16.1419 54.6079 16.5426 55.4637 17.273C56.3195 18.0035 56.8862 19.0157 57.0616 20.1271L64.4419 67.0937C64.5474 67.7671 64.5057 68.4553 64.3198 69.1111C64.1338 69.7668 63.8079 70.3745 63.3646 70.8922C62.9212 71.4099 62.3709 71.8254 61.7516 72.11C61.1323 72.3946 60.4587 72.5417 59.7771 72.541Z" fill="#57E0AF" stroke="black"/>
<path d="M33.0375 1.41296C28.9841 1.41588 25.0978 3.02811 22.2326 5.89529C19.3675 8.76247 17.7581 12.65 17.7581 16.7033H22.9748C22.9748 15.3815 23.2351 14.0726 23.7409 12.8514C24.2468 11.6303 24.9882 10.5206 25.9229 9.58598C26.8575 8.65132 27.9671 7.9099 29.1883 7.40407C30.4095 6.89823 31.7184 6.63788 33.0402 6.63788C34.362 6.63788 35.6709 6.89823 36.8921 7.40407C38.1133 7.9099 39.2229 8.65132 40.1575 9.58598C41.0922 10.5206 41.8336 11.6303 42.3395 12.8514C42.8453 14.0726 43.1056 15.3815 43.1056 16.7033H48.3223C48.3223 12.649 46.7121 8.76069 43.8458 5.89335C40.9795 3.02601 37.0918 1.41442 33.0375 1.41296Z" fill="#54DFAD" stroke="black"/>
<path d="M59.7057 72.4833H6.40491C5.72294 72.4848 5.04874 72.3384 4.42886 72.054C3.80898 71.7697 3.25816 71.3543 2.81442 70.8364C2.37068 70.3186 2.04458 69.7106 1.85863 69.0544C1.67268 68.3983 1.63131 67.7096 1.73736 67.036L9.1121 20.0694C9.28698 18.9577 9.85354 17.9452 10.7095 17.2146C11.5654 16.4841 12.6543 16.0836 13.7797 16.0855H52.3254C53.4509 16.083 54.5401 16.4833 55.3962 17.214C56.2522 17.9446 56.8186 18.9575 56.993 20.0694L64.365 67.036C64.4709 67.7089 64.4297 68.3969 64.2443 69.0525C64.0588 69.708 63.7334 70.3156 63.2906 70.8333C62.8477 71.351 62.298 71.7666 61.6791 72.0515C61.0602 72.3363 60.3869 72.4836 59.7057 72.4833Z" fill="#54DFAD" stroke="black"/>
<path d="M32.977 1.35522C28.9218 1.35522 25.0326 2.96617 22.1651 5.83367C19.2976 8.70117 17.6867 12.5903 17.6867 16.6456H22.9034C22.947 14.0045 24.0268 11.4863 25.9099 9.63402C27.7931 7.78171 30.3287 6.74365 32.9702 6.74365C35.6116 6.74365 38.1473 7.78171 40.0304 9.63402C41.9136 11.4863 42.9934 14.0045 43.037 16.6456H48.2537C48.2537 12.5927 46.6446 8.70562 43.7801 5.83852C40.9156 2.97141 37.0299 1.35886 32.977 1.35522Z" fill="#50DEAB" stroke="black"/>
<path d="M59.6343 72.4285H6.32254C5.64044 72.4297 4.9662 72.2828 4.34632 71.9982C3.72645 71.7136 3.17567 71.2979 2.73198 70.7798C2.28829 70.2617 1.96223 69.6536 1.7763 68.9973C1.59037 68.3411 1.54898 67.6523 1.65499 66.9785L9.04345 20.0119C9.21781 18.9 9.78421 17.8871 10.6403 17.1565C11.4963 16.4258 12.5855 16.0255 13.711 16.028H52.2568C53.3823 16.0255 54.4715 16.4258 55.3275 17.1565C56.1836 17.8871 56.75 18.9 56.9243 20.0119L64.3046 66.9785C64.4106 67.6525 64.3692 68.3415 64.1831 68.998C63.997 69.6545 63.6707 70.2627 63.2267 70.7809C62.7827 71.299 62.2316 71.7146 61.6114 71.9991C60.9911 72.2835 60.3166 72.43 59.6343 72.4285Z" fill="#50DEAB" stroke="black"/>
<path d="M32.9084 1.29773C30.9002 1.29737 28.9116 1.6926 27.0562 2.46085C25.2008 3.2291 23.5148 4.35532 22.0947 5.7752C20.6746 7.19508 19.5481 8.8808 18.7795 10.7361C18.0109 12.5914 17.6153 14.5799 17.6153 16.5881H22.832C22.8756 13.947 23.9554 11.4288 25.8385 9.57652C27.7217 7.72422 30.2573 6.68616 32.8988 6.68616C35.5403 6.68616 38.0759 7.72422 39.9591 9.57652C41.8422 11.4288 42.922 13.947 42.9656 16.5881H48.1823C48.1823 12.5357 46.5736 8.64902 43.7097 5.78199C40.8457 2.91497 36.9608 1.3021 32.9084 1.29773Z" fill="#4DDEAA" stroke="black"/>
<path d="M59.5656 72.3708H6.25118C5.56907 72.3719 4.89484 72.2251 4.27496 71.9405C3.65508 71.6558 3.10431 71.2402 2.66061 70.7221C2.21692 70.204 1.89087 69.5959 1.70493 68.9396C1.519 68.2833 1.47761 67.5945 1.58362 66.9207L8.97209 19.9541C9.14644 18.8422 9.71285 17.8294 10.5689 17.0987C11.425 16.3681 12.5142 15.9678 13.6396 15.9702H52.1854C53.3107 15.9683 54.3997 16.3688 55.2556 17.0994C56.1115 17.83 56.6781 18.8425 56.853 19.9541L64.2332 66.9207C64.3387 67.5945 64.297 68.2831 64.1109 68.9391C63.9248 69.5952 63.5987 70.2032 63.1551 70.7211C62.7115 71.2391 62.1609 71.6548 61.5413 71.9395C60.9216 72.2243 60.2476 72.3714 59.5656 72.3708Z" fill="#4DDEAA" stroke="black"/>
<path d="M32.837 1.23999C30.8288 1.23999 28.8403 1.63558 26.985 2.40416C25.1297 3.17275 23.444 4.29927 22.0241 5.7194C20.6043 7.13954 19.478 8.82546 18.7098 10.6809C17.9415 12.5363 17.5463 14.5249 17.5467 16.5331H22.7633C22.7633 15.2113 23.0237 13.9024 23.5295 12.6812C24.0354 11.46 24.7768 10.3504 25.7114 9.41575C26.6461 8.48109 27.7557 7.73968 28.9769 7.23384C30.1981 6.728 31.507 6.46765 32.8288 6.46765C34.1506 6.46765 35.4595 6.728 36.6807 7.23384C37.9019 7.73968 39.0115 8.48109 39.9461 9.41575C40.8808 10.3504 41.6222 11.46 42.128 12.6812C42.6339 13.9024 42.8942 15.2113 42.8942 16.5331H48.1109C48.1109 12.4804 46.5023 8.59349 43.6385 5.72603C40.7746 2.85857 36.8897 1.24508 32.837 1.23999V1.23999Z" fill="#49DDA8" stroke="black"/>
<path d="M59.4942 72.3131H6.17977C5.49809 72.3131 4.82451 72.1654 4.20541 71.8801C3.58631 71.5947 3.03641 71.1786 2.59358 70.6604C2.15074 70.1421 1.8255 69.5341 1.64024 68.878C1.45498 68.222 1.41412 67.5336 1.52045 66.8603L8.90068 19.9102C9.0761 18.7988 9.64281 17.7866 10.4986 17.0561C11.3544 16.3256 12.4431 15.925 13.5682 15.9263H52.114C53.2393 15.9244 54.3283 16.3249 55.1842 17.0555C56.0401 17.786 56.6067 18.7985 56.7816 19.9102L64.1536 66.8603C64.2599 67.5336 64.219 68.222 64.0338 68.878C63.8485 69.5341 63.5233 70.1421 63.0804 70.6604C62.6376 71.1786 62.0877 71.5947 61.4686 71.8801C60.8495 72.1654 60.1759 72.3131 59.4942 72.3131Z" fill="#49DDA8" stroke="black"/>
<path d="M38.2541 37.3285C36.0576 37.3285 34.6326 38.1247 33.6387 39.7282C32.9386 38.2263 31.1045 37.3285 29.2677 37.3285C27.4309 37.3285 26.3875 37.9298 25.2508 39.2779H25.1987V37.7266H22.7715V51.9736H25.3991V43.9756C25.3991 41.1778 26.544 39.7776 28.8778 39.7776C30.764 39.7776 32.0517 40.8758 32.0517 43.6791V51.9736H34.6848V43.9756C34.6848 41.1284 35.676 39.8298 38.0097 39.8298C40.2419 39.8298 41.3374 41.3289 41.3374 44.0278V51.9736H43.965V43.3304C43.9705 39.6266 41.9305 37.3285 38.2541 37.3285Z" fill="#0A0909"/>
<path d="M37.8917 32.4687C37.8897 32.4599 37.8857 32.4516 37.8801 32.4445C37.8744 32.4373 37.8673 32.4316 37.8591 32.4276C37.8509 32.4237 37.8419 32.4216 37.8328 32.4216C37.8237 32.4216 37.8148 32.4236 37.8066 32.4276C37.4998 32.5737 37.1661 32.6551 36.8264 32.6664C33.334 32.6225 33.787 35.3352 33.8392 35.3352L33.6579 35.7031L33.4273 35.2336C33.485 35.2336 34.0616 31.7878 29.6329 31.8455C29.1949 31.8312 28.7647 31.7255 28.3699 31.5352C28.3616 31.5307 28.3523 31.5282 28.3428 31.5281C28.3334 31.528 28.324 31.5302 28.3156 31.5345C28.3072 31.5388 28.3 31.5452 28.2946 31.553C28.2892 31.5608 28.2858 31.5698 28.2848 31.5792C28.0605 32.6041 28.2105 33.6754 28.7076 34.5994C28.8281 34.8133 28.9758 35.0108 29.1469 35.1869C29.2892 35.3355 29.4466 35.4689 29.6164 35.585C30.2863 36.0573 31.2857 36.3538 32.6174 35.7443C33.0731 36.093 33.4191 37.1665 33.5838 37.8968C33.5838 37.9129 33.5902 37.9282 33.6015 37.9396C33.6128 37.9509 33.6282 37.9572 33.6442 37.9572C33.6602 37.9572 33.6756 37.9509 33.6869 37.9396C33.6983 37.9282 33.7046 37.9129 33.7046 37.8968C33.7842 37.3477 33.916 36.5103 34.1439 36.1644C34.2328 36.0059 34.3448 35.8616 34.4761 35.736C35.8023 36.3456 36.7166 35.8074 37.2053 35.294C37.241 35.2583 37.2629 35.2281 37.2931 35.1924C37.3929 35.082 37.4795 34.9604 37.5512 34.83C37.9416 34.1083 38.0623 33.2713 37.8917 32.4687Z" fill="#0A0909"/>
</svg>
